<?xml version='1.0' encoding='utf-8'?>
<svg xmlns="http://www.w3.org/2000/svg" enable-background="new 0 0 5000 493.3831" version="1.1" viewBox="0 0 5e3 493.38"> <path d="m12.649 254.02c4.8153-4.3152 10.486-7.4453 16.118-10.756 25.609-15.053 52.22-28.399 79.597-39.926 13.688-5.7637 27.568-11.073 41.61-15.914 11.627-4.0087 22.827-9.0186 34.683-12.446 136-39.321 182.42-51.836 332.71-61.726 39.062-2.5705 150.81-0.9668 185.42 2.6608 19.562 2.0959 39.082 4.4941 58.604 6.918 40.942 5.0836 81.512 13.16 121.28 24.131 35.329 9.7453 69.293 21.652 102.14 37.951 11.675 5.7941 21.228 10.897 21.228 11.339 0 1.3272-14.023-1.3093-25.127-4.7239-14.358-4.4157-65.338-13.494-88.376-15.738-76.024-7.4045-186.35 0.1644-231.91 11.4-14.632 3.6088-11.669 0.5575-39.32 7.4496-21.155 5.2889-42.498 9.5837-63.304 16.099-19.555 6.1232-38.884 12.969-57.934 20.518-8.9563 3.5489-18.178 6.5181-26.84 10.637-9.1799 4.3647-18.279 8.8985-27.293 13.596-35.23 18.363-70.511 38.645-101.46 63.677-25.278 20.443-49.076 45.308-67.645 72.034-24.486 35.244-31.224 73.735-28.682 102.18h10.952c2.4043-19.194 9.7698-44.463 19.311-63.212 2.2883-4.4965 6.4014-12.57 9.1404-17.94 5.5786-10.938 27.725-34.256 39.483-41.571 19.609-12.2 23.405-15.09 27.286-20.778 3.7502-5.4966 4.8897-6.0706 11.381-5.7347 8.6996 0.4503 21.918-5.4564 25.937-11.59 5.3816-8.2133 8.309-4.06 3.5585 5.0485-3.4141 6.5463-3.2954 20.749 0.2354 28.19 6.5417 13.786 20.545 17.756 33.66 22.786 0.8735 0.3351 1.7857 0.6758 2.7174 0.5896 0.9356-0.0866 1.7726-0.593 2.5722-1.0864 4.6433-2.8653 9.9621-5.4078 14.241-8.7512 3.1632-2.4716 3.8848-5.5819-0.8225-6.2819-6.442-0.958-10.768-8.959-11.558-21.379-4.1855-65.729 91.912-117.75 152.18-133.73 27.983-7.4199 43.802-10.929 49.265-10.929 5.7734 0 6.0471 0.2624 5.1174 4.9108-0.804 4.0191 0.0172 5.7494 4.5083 9.5307 3.02 2.541 6.7955 4.7045 8.3901 4.8076 6.0288 0.3898 19.341 0.4577 21.278 3.5156 2.0192 3.1872 1.924 4.9612-0.2667 4.9612-2.4831 0-18.92 10.636-24.664 15.959-7.3704 6.8306-10.376 15.884-9.0533 27.276 1.065 9.1762 0.8737 9.8993-3.1953 12.077-6.7743 3.6255-10.949 21.015-7.9978 33.316 2.0015 8.3426 9.8114 23.506 14.716 28.572 7.2916 7.5316 26.022 11.826 30.108 6.9033 1.6-1.9281 0.3873-3.1947-6.2211-6.4982-6.8881-3.4432-12.246-9.1938-14.431-16.653-4.7041-16.06 4.2801-32.293 12.726-45.473 9.3703-14.624 21.468-27.414 34.958-38.302 1.0587-0.8545 2.1262-1.6982 3.2018-2.5314 14.945-11.577 31.218-23.048 48.688-30.208 4.512-1.8492 9.3946-3.1781 13.79-5.2585 8.399-3.9753 17.661-5.621 26.815-7.5214 10.25-2.1277 20.566-3.9304 30.93-5.4065 20.52-2.9226 41.222-4.5646 61.946-4.9138 41.074-0.6921 82.031 3.4081 121.99 13.003 14.882 3.5741 29.596 7.853 44.073 12.821 3.6191 1.2421 7.2235 2.5273 10.812 3.8552 3.0244 1.1191 5.4363 2.9123 8.4126 4.0724 2.6367 1.0277 9.1227 2.9878 7.1125-2.2499-1.2997-3.3862-3.4263-4.1302-26.075-20.17-10.15-7.1882-15.321-9.6408-27.649-16.73-23.01-13.26-47.148-26.303-72.072-35.525-38.21-14.137-77.362-25.726-117.1-34.695-39.742-8.969-80.075-15.319-120.65-18.979-35.055-3.162-70.016-3.9253-105.19-4.5483-58.798-1.0415-72.885-0.7398-118.7 2.5421-37.444 2.6822-96.168 7.319-140.36 15.836-122.63 23.633-227.44 64.985-229.34 63.084-1.9499-1.9496 112.05-58.024 114.92-58.024 0.4877 0 52.012-21.748 52.186-21.824 7.9864-3.4753 32.443-10.606 37.978-12.978 11.268-4.8297 95.128-25.848 116.97-29.316 82.741-13.14 102.23-17.913 103.64-16.504 2.4411 2.4411-12.512 19.321 10.988 8.1546 35.998-17.104 59.433-17.506 63.987-20.322 1.0177-0.6288 45.945-9.3479 138.5-12.148 34.376-1.04 36.925-0.5411 25.877 5.0645-2.1307 1.081-6.886 5.5319-10.568 9.8911-6.5061 7.703-7.9877 13.596-6.8297 27.165 0.3173 3.7181 3.5339 2.3683 4.6143-1.9365 2.0439-8.0699 12.123-11 18.828-13.587 35.888-13.844 75.732-16.406 113.85-17.898 25.926-1.0148 100.24 1.3167 114.15 3.5818 2.3825 0.3877 8.231 1.1387 12.996 1.6686 12.622 1.4038 21.798 3.6074 35.09 5.1444 8.3384 0.9641 9.0975 0.7577 9.0975-2.4734 0-4.7066 3.4659-4.6114 3.4659-0.0597 0 4.6793 2.9233 4.3992 4.521-0.4332l1.2889-3.899 1.1366 4.3322c5.7921 22.079-33.698-2.7541-83.955 29.107-10.566 6.6988-25.231 22.569-25.231 27.306 0 5.4088 2.7037 6.7733 5.5132 2.7824 5.3741-7.6336 30.207-15.728 62.935-20.514 20.441-2.9892 86.977-4.3822 103.11-2.1584 27.39 3.7764 96.973 9.6622 175.02 40.536 38.54 15.246 36.608 12.152 37.312 21.585 1.1038 14.8 8.7252 8.9576 3.0325 18.927-2.2903 4.0107-3.9368 5.1389-6.3777 4.3696-6.006-1.8928-36.429-0.7172-45.23 1.7478-10.903 3.0537-27.444 7.3834-34.501 10.396-33.062 14.115-74.23 19.714-104.13 14.162-26.068-4.8403-47.718-17.817-50.434-30.229-1.7247-7.8801-1.9658-8.0787-3.9014-3.2154-2.6066 6.5494-0.2458 12.01 10.676 24.693 12.031 13.972 12.8 14.729 14.943 14.729 1.0212 0 1.8567 0.6317 1.8567 1.4036 0 1.7373 21.236 15.962 28.478 19.076 15.586 6.7009 25.754 9.2779 40.162 10.179 14.942 0.934 16.141 0.7468 22.383-3.4953 3.6279-2.4652 7.2024-4.1076 7.9435-3.6496 0.741 0.4579 6.6685 0.8824 13.172 0.9433 10.46 0.098 20.115-2.0789 35.359-7.9721 9.0427-3.4956-15.981 28.167 10.596 49.944 7.3107 5.9904 8.4515 6.3515 20.065 6.3515 14.983 0 22.909-3.508 27.94-12.366 4.2273-7.4438 4.4574-11.634 1.083-19.71-2.1255-5.0874-9.4718-11.431-15.7-13.556-4.8821-1.6664 11.43-11.439 30.325-18.168 18.849-6.7122 67.618-12.101 103.97-11.488 32.849 0.5538 65.809 6.9095 97.071 16.827 20.581 6.5291 42.877 13.694 60.295 26.945 9.1051 6.927 22.425 12.602 23.43 9.9834 1.0703-2.7889-4.2201-14.648-11.046-24.763-7.1952-10.662-2.9816-10.196-2.146-7.8562 0.4255 1.1913 3.4283 2.1661 6.6727 2.1661 13.725 0 47.128 10.684 114.25 19.192 51.772 6.5631 52.355 6.6001 64.353 4.09 6.1915-1.2955 13.35-2.0219 15.908-1.6142 7.7292 1.2316 88.933 9.5911 119.78 8.7903 17.974-0.4666 88.909-0.2535 146.53-6.4074 41.946-4.4796 159.66-10.546 257.05-36.523 14.426-3.8475 17.942-3.2729 6.8484 1.1193-4.6538 1.8427-8.9619 4.4638-13.628 6.4443-28.595 12.138-57.747 22.962-87.334 32.428-29.032 9.2879-57.844 19.057-87.558 26.204-90.285 21.714-171.05 34.148-272.06 33.376-103.83-0.7941-110.9-5.0702-110.9-2.4852 0 3.2738 11.965 6.6915 14.246 7.6789 6.459 2.7967 12.879 5.7223 19.39 8.3938 11.373 4.6876 24.44 2.7115 36.624 2.665 13.482-0.0514 26.965-0.1141 40.446-0.2841 22.895-0.2888 45.787-0.9506 68.651-2.1801 52.987-2.8494 105.77-8.9688 157.8-19.452 56.693-11.421 112.65-27.526 166.99-47.268 29.082-10.565 57.74-22.3 85.88-35.165 24.292-11.106 49.319-22.168 72.275-35.888 9.0701-5.4209 22.926-13.035 32.805-19.432 9.8794 6.3968 23.736 14.011 32.806 19.432 22.956 13.72 47.983 24.782 72.275 35.888 28.141 12.865 56.798 24.6 85.88 35.165 54.344 19.742 110.3 35.847 166.99 47.268 52.037 10.483 104.82 16.602 157.8 19.452 22.864 1.2295 45.757 1.8913 68.651 2.1801 13.482 0.17 26.964 0.2327 40.447 0.2841 12.184 0.0464 25.251 2.0225 36.624-2.665 6.512-2.6715 12.931-5.5972 19.39-8.3938 2.2805-0.9873 14.246-4.4051 14.246-7.6789 0-2.585-7.0693 1.6911-110.9 2.4852-101.01 0.7725-181.77-11.662-272.06-33.376-29.714-7.1463-58.526-16.916-87.558-26.204-29.587-9.4653-58.74-20.29-87.334-32.428-4.6663-1.9806-8.9744-4.6016-13.629-6.4443-11.093-4.3922-7.5771-4.9669 6.8489-1.1193 97.393 25.977 215.11 32.043 257.05 36.523 57.624 6.1538 128.56 5.9408 146.53 6.4074 30.848 0.8009 112.05-7.5586 119.78-8.7903 2.5579-0.4077 9.7158 0.3188 15.908 1.6142 11.997 2.5102 12.581 2.4731 64.352-4.09 67.118-8.5087 100.52-19.192 114.25-19.192 3.2446 0 6.2471-0.9748 6.6729-2.1661 0.8354-2.3398 5.0493-2.8055-2.146 7.8562-6.8262 10.114-12.117 21.974-11.047 24.763 1.0054 2.6191 14.325-3.0564 23.43-9.9834 17.418-13.251 39.714-20.416 60.295-26.945 31.262-9.9176 64.222-16.273 97.072-16.827 36.353-0.6128 85.123 4.7759 103.97 11.488 18.895 6.7284 35.207 16.501 30.325 18.168-6.2283 2.126-13.574 8.4692-15.7 13.556-3.3745 8.0758-3.1445 12.266 1.083 19.71 5.0305 8.8579 12.956 12.366 27.94 12.366 11.614 0 12.754-0.3611 20.065-6.3515 26.577-21.778 1.5532-53.44 10.596-49.944 15.245 5.8932 24.9 8.0701 35.359 7.9721 6.5042-0.0608 12.432-0.4854 13.172-0.9433 0.7412-0.458 4.3154 1.1843 7.9431 3.6496 6.2432 4.2421 7.4421 4.4293 22.384 3.4953 14.408-0.9007 24.576-3.4778 40.162-10.179 7.2422-3.1136 28.478-17.338 28.478-19.076 0-0.7719 0.8352-1.4036 1.8564-1.4036 2.1438 0 2.9121-0.7576 14.943-14.729 10.922-12.684 13.283-18.144 10.676-24.693-1.9353-4.8633-2.1765-4.6647-3.9011 3.2154-2.7163 12.412-24.367 25.388-50.435 30.229-29.898 5.5515-71.067-0.0478-104.13-14.162-7.0564-3.0125-23.598-7.3423-34.501-10.396-8.8008-2.465-39.224-3.6406-45.23-1.7478-2.4407 0.7693-4.0872-0.3589-6.3772-4.3696-5.6931-9.9692 1.9287-4.1267 3.0322-18.927 0.7039-9.4325-1.2283-6.3388 37.312-21.585 78.046-30.874 147.63-36.76 175.02-40.536 16.129-2.2238 82.665-0.8308 103.11 2.1584 32.728 4.7862 57.561 12.881 62.935 20.514 2.8093 3.9909 5.5132 2.6264 5.5132-2.7824 0-4.7371-14.664-20.608-25.231-27.306-50.257-31.861-89.747-7.0276-83.955-29.107l1.1362-4.3322 1.2893 3.899c1.5977 4.8324 4.521 5.1125 4.521 0.4332 0-4.5517 3.4658-4.6469 3.4658 0.0597 0 3.2312 0.7593 3.4375 9.0977 2.4734 13.292-1.5369 22.468-3.7405 35.09-5.1444 4.7656-0.5299 10.614-1.2809 12.996-1.6686 13.919-2.2651 88.229-4.5967 114.16-3.5818 38.122 1.4922 77.966 4.0538 113.85 17.898 6.7041 2.5864 16.784 5.5169 18.828 13.587 1.0806 4.3048 4.2969 5.6547 4.6143 1.9365 1.1582-13.569-0.3232-19.462-6.8296-27.165-3.6816-4.3592-8.437-8.8101-10.568-9.8911-11.048-5.6056-8.499-6.1045 25.877-5.0645 92.555 2.8003 137.48 11.52 138.5 12.148 4.5547 2.815 27.989 3.2173 63.987 20.322 23.5 11.167 8.5474-5.7135 10.988-8.1546 1.4097-1.4098 20.898 3.3639 103.64 16.504 21.84 3.4683 105.7 24.486 116.97 29.316 5.5356 2.3726 29.992 9.5027 37.978 12.978 0.1738 0.0756 51.698 21.824 52.186 21.824 2.8647 0 116.87 56.075 114.92 58.024-1.9014 1.9007-106.71-39.451-229.34-63.084-44.194-8.5168-102.92-13.154-140.36-15.836-45.816-3.2819-59.903-3.5836-118.7-2.5421-35.177 0.623-70.138 1.3863-105.19 4.5483-40.577 3.6602-80.91 10.01-120.65 18.979-39.742 8.9689-78.894 20.558-117.1 34.695-24.924 9.2214-49.063 22.265-72.072 35.525-12.328 7.0893-17.498 9.542-27.649 16.73-22.649 16.04-24.776 16.784-26.075 20.17-2.01 5.2377 4.4758 3.2776 7.1125 2.2499 2.9763-1.1601 5.3877-2.9533 8.4126-4.0724 3.5886-1.3278 7.1931-2.6131 10.812-3.8552 14.477-4.9683 29.19-9.2473 44.073-12.821 39.955-9.5953 80.912-13.696 121.99-13.003 20.724 0.3492 41.426 1.9913 61.946 4.9138 10.363 1.4761 20.68 3.2788 30.93 5.4065 9.1538 1.9004 18.416 3.5461 26.815 7.5214 4.395 2.0803 9.2778 3.4093 13.79 5.2585 17.471 7.1599 33.744 18.631 48.688 30.208 1.0757 0.8333 2.1431 1.6769 3.2017 2.5314 13.491 10.888 25.588 23.678 34.958 38.302 8.4448 13.181 17.43 29.414 12.726 45.473-2.1846 7.4589-7.5435 13.21-14.431 16.653-6.6089 3.3034-7.8213 4.5701-6.2212 6.4982 4.0854 4.923 22.816 0.6283 30.108-6.9033 4.9053-5.0665 12.715-20.23 14.716-28.572 2.9512-12.302-1.2231-29.691-7.9976-33.316-4.0688-2.1776-4.2603-2.9008-3.1953-12.077 1.3218-11.392-1.6826-20.445-9.0532-27.276-5.7441-5.3237-22.181-15.959-24.665-15.959-2.1904 0-2.2856-1.774-0.2666-4.9612 1.9375-3.058 15.25-3.1258 21.278-3.5156 1.5952-0.1031 5.3706-2.2666 8.3906-4.8076 4.4912-3.7814 5.312-5.5116 4.5083-9.5307-0.9297-4.6484-0.6563-4.9108 5.1177-4.9108 5.4629 0 21.282 3.5095 49.265 10.929 60.268 15.98 156.37 68.005 152.18 133.73-0.7905 12.42-5.1162 20.421-11.558 21.379-4.7075 0.7-3.9858 3.8102-0.8228 6.2819 4.2793 3.3434 9.5977 5.8859 14.241 8.7512 0.7993 0.4934 1.6362 0.9998 2.5723 1.0864 0.9312 0.0863 1.8438-0.2545 2.7173-0.5896 13.115-5.0299 27.118-9.0008 33.66-22.786 3.5308-7.4409 3.6494-21.643 0.2354-28.19-4.7505-9.1085-1.8232-13.262 3.5586-5.0485 4.019 6.1338 17.237 12.04 25.937 11.59 6.4907-0.3359 7.6304 0.2382 11.38 5.7347 3.8809 5.6876 7.6772 8.5784 27.286 20.778 11.758 7.3154 33.905 30.633 39.483 41.571 2.7388 5.3709 6.8521 13.444 9.1401 17.94 9.541 18.749 16.907 44.018 19.31 63.212h10.952c2.542-28.45-4.1958-66.941-28.682-102.18-18.568-26.726-42.367-51.59-67.645-72.034-30.951-25.032-66.233-45.314-101.46-63.677-9.0137-4.6976-18.113-9.2314-27.293-13.596-8.6626-4.1189-17.884-7.088-26.84-10.637-19.05-7.5488-38.379-14.395-57.934-20.518-20.806-6.5149-42.148-10.81-63.304-16.099-27.651-6.8921-24.688-3.8408-39.32-7.4496-45.559-11.236-155.89-18.804-231.91-11.4-23.038 2.2437-74.018 11.322-88.376 15.738-11.103 3.4147-25.126 6.0512-25.126 4.7239 0-0.4423 9.5525-5.5447 21.228-11.339 32.844-16.3 66.809-28.206 102.14-37.951 39.771-10.971 80.34-19.047 121.28-24.131 19.522-2.4239 39.042-4.8221 58.604-6.918 34.608-3.6276 146.35-5.2312 185.42-2.6608 150.29 9.8895 196.71 22.404 332.71 61.726 11.856 3.4279 23.055 8.4378 34.683 12.446 14.042 4.841 27.921 10.15 41.61 15.914 27.376 11.528 53.989 24.873 79.597 39.926 5.6328 3.3111 11.303 6.4412 16.119 10.756 1.0679 0.9572 11.191 9.5105 12.594 8.1001 0.5469-0.5493-3.1938-4.9348-3.5278-5.3636-2.1367-2.7379-4.1768-5.4261-6.7588-7.7325-0.8491-0.7577-1.7031-1.5092-2.5625-2.2545-1.9653-1.7042-3.959-3.3755-5.98-5.0131-5.8101-4.7076-11.846-9.1364-18.08-13.266-10.806-7.1573-20.947-15.463-31.971-22.353-8.6621-5.8591-17.393-11.711-26.523-16.825-0.0347-0.0195-0.0698-0.0392-0.1045-0.0588-26.33-14.714-5.2192-5.2382-64.834-36.038-26.606-13.746-53.258-26.997-80.774-39.028-28.436-12.433-57.25-24.001-86.391-34.681-29.467-10.8-59.703-21.027-90.165-28.643-99.59-28.332-202.69-43.718-306-48.584-63.379-2.9848-126.8-3.1695-190.17 0.2156-92.931 4.9646-186.91 14.547-276.62 39.914-24.436 6.9089-48.637 14.627-72.688 22.77-90.704 30.71-179.59 64.022-272.25 87.699-57.723 14.749-116.48 25.676-174.89 37.236-4.9412 0.9779-9.8823 1.9534-14.824 2.9272-70.488 13.89-62.386 9.2268-104.84 16.637-19.389 3.3846-54.875 5.6722-61.517 6.8582-24.76 4.4205-160.95 10.667-229.6 6.1695-105.03-6.8812-209.95-19.323-309.32-52.986-15.726-5.3273-30.932-10.746-33.791-12.041-11.52-5.2188-27.804-12.435-35.76-16.649-7.9558 4.2133-24.24 11.43-35.76 16.649-2.8594 1.2953-18.065 6.7138-33.791 12.041-99.369 33.663-204.28 46.105-309.32 52.986-68.651 4.4976-204.84-1.749-229.6-6.1695-6.642-1.1859-42.128-3.4736-61.517-6.8582-42.453-7.4105-34.351-2.7478-104.84-16.637-4.9415-0.9738-9.8832-1.9493-14.824-2.9272-58.414-11.56-117.17-22.487-174.89-37.236-92.662-23.677-181.55-56.989-272.25-87.699-24.05-8.143-48.251-15.861-72.687-22.77-89.717-25.367-183.69-34.949-276.62-39.914-63.37-3.3851-126.79-3.2004-190.17-0.2156-103.31 4.8656-206.41 20.252-306 48.584-30.463 7.6156-60.698 17.843-90.165 28.643-29.14 10.68-57.954 22.248-86.39 34.681-27.516 12.031-54.168 25.281-80.774 39.028-59.614 30.799-38.503 21.323-64.833 36.038-0.035 0.0196-0.07 0.0392-0.1051 0.0588-9.1303 5.1136-17.861 10.966-26.523 16.825-11.024 6.8904-21.166 15.196-31.972 22.353-6.2341 4.1293-12.27 8.5582-18.08 13.266-2.0212 1.6376-4.0149 3.3089-5.9802 5.0131-0.8595 0.7453-1.7135 1.4968-2.5619 2.2545-2.5826 2.3064-4.6225 4.9946-6.759 7.7325-0.3347 0.4288-4.0749 4.8143-3.5283 5.3636 1.4033 1.4103 11.527-7.143 12.595-8.1002zm245.27 210.61c-1.0271 2.6115-1.3459 2.6942-1.7972 0.467-0.3019-1.4891 0.2104-4.6082 1.1385-6.9315 1.6014-4.0083 1.6931-4.0321 1.7973-0.4669 0.0606 2.0665-0.452 5.1856-1.1386 6.9314zm3.3281-20.046c-0.3256-0.9767 0.2192-3.17 1.2106-4.8737 1.6646-2.8604 1.8069-2.8211 1.8556 0.5123 0.059 4.0114-2.1404 7.1391-3.0662 4.3614zm8.3174-15.281c0 1.3433-0.6416 1.296-2.0916-0.1541-1.634-1.6339-1.3905-2.753 1.1123-5.1119 5.4986-5.1828 0.9793 0.3564 0.9793 5.266zm7.5092-12.041c-5.1422 5.1423-2.3947-8.9854-0.3778-10.232 1.7657-1.0912 2.1194 8.4902 0.3778 10.232zm7.0397-14.91c-0.5759-0.5759-0.6373-2.0704-0.1368-3.3214 1.2879-3.2187 1.5112 4.6957 0.1368 3.3214zm13.299-20.758c0.0676-1.1913 0.7919-3.7256 1.611-5.6317 1.248-2.9044 1.5091-2.5535 1.6111 2.166 0.1734 7.9443-3.358 5.8805-3.2221 3.4657zm10.722-9.8074-1.3103 5.9085c-0.9143-9.5219-0.8214-11.89-0.125-12.585 2.0495-2.0497 2.6998 0.9749 1.4353 6.6769zm5.5162 1.5764c-0.4203 0-0.6616-3.3141-0.5361-7.3647 0.3042-9.8152-0.1624-9.3901 1.3977-1.2997 1.1118 5.7666 0.8236 8.6644-0.8616 8.6644zm10.258-8.1339c-2.0768 2.0768-4.0905-0.7242-4.0905-5.6897 0-5.9972 1.5531-10.437 3.6512-10.437 1.752 1e-4 2.1447 14.421 0.4393 16.126zm5.8949-5.4478c-3.5142-3.5142 3.4492-31.722 3.6146-10.356 0.0779 10-0.9698 13.001-3.6146 10.356zm8.643-4.2052c-1.4506-0.5002-1.9725-3.5529-1.58-9.2419 0.8919-12.93 3.7462-13.615 3.7462-0.8993-1e-4 7.9537-0.5839 10.687-2.1662 10.141zm11.683-9.9173c-2.633 4.2607-4.3186 0.8708-4.3186-8.686 0-7.1627 0.674-10.397 2.1661-10.397 2.2952 4e-4 4.0936 15.942 2.1525 19.083zm8.3093-9.8239c-1.8544 3.0008-4.0947-10.338-2.4726-14.723 1.176-3.1789 1.6107-2.4204 2.5541 4.4616 0.6251 4.5606 0.5887 9.178-0.0815 10.261zm8.3162-1.4614c-0.7301 2.8656-1.0842 2.5655-2.0442-1.7329-0.6982-3.1264-2.7393-17.269-0.0056-18.958 1.7709-1.0945 3.403 15.381 2.0498 20.691zm15.047-5.4451c-1.0776-0.6661-1.292-5.5931-0.5646-12.977 0.9802-9.9468 0.7464-11.903-1.4255-11.903-3.0642 0-3.4673 8.3105-5.2234 25.127-2.7561-14.361-5.1425-21.963 3.9099-27.31 2.8072-1.6583 5.5688-3.015 6.1364-3.015 1.2951 0 2.2504 33.221-2.8328 30.079zm8.5376-22.714c-1.3634-17.038 2.2589-16.709 2.2589 0.722-1e-4 16.302-0.9203 16.007-2.2589-0.722zm59.443-39.422c0 6.3116-3.4658 2.851-3.4658 0 1e-4 -2.8043 3.4658-6.4037 3.4658 0zm-34.588 13.78c4.5015-5.4242 7.6967-1.3016 2.0969 4.9035-2.6966 2.988-3.0966 3.0418-3.6088 0.4864-0.3171-1.5806 0.3634-4.0061 1.5119-5.3899zm-8.7334 4.1714c0-0.9314 0.7067-1.2568 1.5701-0.7231 1.9907 1.2302 0.3378 7.8984-1.9576 7.8984-2.349 0 0.3875-4.4237 0.3875-7.1753zm-8.0792 11.074c-0.4807-1.1913-0.4808-3.1408 0-4.3322 1.1681-2.8951 1.1684 7.2282 0 4.3322zm1.6861 54.585c-0.436-1.6678-0.436-4.397 0-6.065 1.0592-4.0539 1.0592 10.119 0 6.065zm20.256-10.83c-3.5864-2.2164 0.9555-50.349-5.9819-39.124-1.416 2.2913-0.6057 32.642-2.824 34.013-0.8752 0.5409-1.5912 5.6162-1.5912 11.278 0 14.139-3.0216 13.026-3.8055-1.402-1.0795-19.87 5.2022-17.572 3.0804-28.881-1.3596-7.2478-3.7078-6.7642-6.0227 1.2404-1.3518 4.6747-1.6285 4.8978-1.7603 1.4188-0.3611-9.4644 16.338-26.029 19.338-26.147 1.5301-0.0598 2.1185 49.18-0.4333 47.603zm2.457 38.989c-0.9019 0-1.1779-26.476 0.5755-25.399 1.3167 0.8087 0.7596 25.399-0.5755 25.399zm1.0087-99.754c0-2.2558 3.7154-7.684 5.2596-7.684 2.3397 0 2.0865 4.0907-0.4075 6.5848-2.1743 2.1743-4.8521 2.781-4.8521 1.0992zm4.0079 59.485c-0.4338-1.6568-0.4496-4.7761-0.0348-6.9316 1.0018-5.2091 1.0909 10.965 0.0348 6.9316zm0.2197-12.111c-0.2905-0.2906-2.5396-39.736 0.6555-40.802 4.3453-1.4482 0.6249 42.082-0.6555 40.802zm4.2316 49.095c-2.1864-2.037-3.3109-4.9304-2.96-7.6167 0.512-3.9205 0.9188-3.6086 4.2839 3.2847 4.1168 8.4336 3.8865 9.1863-1.3239 4.332zm4.5401-62.564c-0.9724 0-1.6261-34.668 2.7651-31.954 3.4203 2.1139 0.8382 31.954-2.7651 31.954zm8.4356-21.228c0.5749-2.1444 1.0556-5.7184 1.0686-7.9423 0.0294-4.9548 3.9746-4.1628 4.3456 0.8723 0.7851 10.654-7.4281 14.585-5.4142 7.07zm11.287-8.231c-0.8419 0-1.5308-5.4126-1.5308-12.028 0-14.729 2.8923-17.772 3.8066-4.0043 0.7347 11.062 0.0295 16.032-2.2758 16.032zm11.295-12.269c-1.1976 4.232-1.35 4.1005-2.8524-2.4603-1.8103-7.9069-0.0216-10.545 2.9168-17.329 0.4228 5.3936 1.4205 14.543-0.0644 19.789zm8.4964-4.6136c-1.776 2.7431-2.9221-7.9721-1.4711-13.753 0.5747-2.2899 1.6324-3.8003 2.3505-3.3565 1.655 1.023 0.9754 14.244-0.8794 17.11zm10.013-7.3775c-4.7408 0-1.9527-14.114 0.0503-12.876 2.0365 1.2587 1.9917 12.876-0.0503 12.876zm6.7876-15.596c1.247-1.9295 1.6866-0.8985 1.7063 4.0012 0.0494 11.283-6.1998 2.9517-1.7063-4.0012zm8.4766 5.1986c-0.8498 0-1.545-1.9035-1.545-4.23 0-4.0228 2.7463-7.4642 4.5318-5.6787 1.3188 1.3188-1.2705 9.9087-2.9868 9.9087zm11.162-6.3539c-2.1931 2.1933-4.4109 1.1472-3.3621-1.5857 0.5785-1.5076 1.0518-3.4571 1.0518-4.3322s0.7798-1.5912 1.7328-1.5912c1.9359 0 2.3752 5.7115 0.5775 7.5091zm10.472-6.7096c-1.1736 3.0585-2.8516 2.2754-3.4199-1.5962-0.1959-1.3361 0.7364-2.8487 2.0718-3.3612 2.629-1.0088 3.0474 0.5292 1.3481 4.9574zm7.8005-7.1678c1.5103-2.5971 1.8484-2.672 1.8917-0.4188 0.1061 5.5801-5.5199 6.6633-1.8917 0.4188zm127.14-20.627c-1.7873 1.7988-4.5996-8.5348-3.2674-12.006 0.5924-1.5435 1.8622-2.3211 2.822-1.7279 2.0239 1.2509 2.3663 11.802 0.4454 13.734zm7.184 2.2662c-0.5757-0.5758-0.6372-2.0704-0.1368-3.3213 1.288-3.2188 1.5113 4.6956 0.1368 3.3213zm9.2223 4.5865c-1.8469 3.2218-2.1754 2.298-2.6329-7.4068-0.2874-6.0982 0.1838-11.794 1.0472-12.657 2.5732-2.5732 4.026 15.808 1.5857 20.064zm-23.222 61.407c1.288-3.2188 1.5114 4.6956 0.137 3.3214-0.5759-0.5759-0.6374-2.0705-0.137-3.3214zm-2.0797 66.174c-0.8417 0-2.001-1.7545-2.5756-3.8989-0.7615-2.8413-2.5536-14.509 1.5748-4.9997 2.9129 6.7095 3.1593 8.8986 1.0008 8.8986zm3.6266-49.721c-0.914 3.495-0.9847 3.503-2.147 0.2414-0.6611-1.8552-0.8115-4.4131-0.3344-5.6843 1.3871-3.6942 3.6007 1.1621 2.4814 5.4429zm8.4957-4.8644c-1.3071 2.1353-2.6873-30.258-0.4229-32.523 1.8179-1.8179 2.2262 29.577 0.4229 32.523zm7.0317-25.993c0.0516-7.097 2.7998-23.138 2.8765-0.8664 0.0742 21.865-2.9303 8.1652-2.8765 0.8664zm17.805-62.381c-0.3126 5.2429-1.0496 10.312-1.6381 11.264-2.7045 4.3761-4.3311 0.7964-4.3311-9.5325 0-9.8822 0.4008-11.264 3.2689-11.264 2.8759-1e-4 3.2005 1.1457 2.7003 9.5325zm8.4712 51.695c-3.1492 3.1493-4.0432-0.2044-4.0432-15.165 0-16.586 0.8733-21.803 3.6511-21.803 1.7732-1e-4 2.1468 35.213 0.3921 36.968zm1.5932-57.329c-1.5547 12.598-4.978 13.853-5.9075 2.166-0.5525-6.9458-0.2256-7.7979 2.9911-7.7979 3.0616 1e-4 3.5057 0.8573 2.9164 5.6319zm5.6444 51.553c-0.2631 0-0.601-7.798-0.7508-17.329-0.3694-23.489 3.333-21.859 3.333-2.741 1e-4 12.695-0.9488 20.07-2.5822 20.07zm-1.1814-48.954c-1.4311-7.9459 2.016-13.552 4.4432-7.227 1.9274 5.0224-2.6049 17.437-4.4432 7.227zm33.196-6.9316c0.0294 6.3049-0.8695 7.287-2.1585 2.3579-1.037-3.966 2.1192-10.674 2.1585-2.3579zm-20.146 45.123c-1.5181 5.6671-1.9243 4.4348-2.8898-8.7645-0.9037-12.359-0.0755-18.597 2.4692-18.597 1.7264 0 2.0534 21.266 0.4206 27.361zm-0.6225-34.293c-2.143 0-2.3347-8.5177 0-12.13 1.2303-1.9036 1.687-0.6281 1.7063 4.7654 0.0174 4.0506-0.7531 7.3647-1.7063 7.3647zm11.137 14.28c-0.3991 16.45-0.6078 17.736-2.5622 15.782-1.0127-1.0125-1.5901-6.6871-1.2997-12.772 0.6392-13.393 4.181-16.154 3.8619-3.0099zm0.993-20.204c0 5.9965-2.835 5.1779-4.1077-1.1862-1.2358-6.1792-0.2767-8.4863 3.5289-8.4863 3.7907 0 0.5788 3.0074 0.5788 9.6725zm7.5087 29.028c-2.0671 2.0672-2.3102 1.2765-2.3102-7.5091 0-4.7654 0.7798-8.6642 1.7328-8.6642 1.9113-1e-4 2.423 14.328 0.5774 16.173zm8.0867-10.108c0-8.0405 3.4659-8.0943 3.4659 0 0 8.0403-3.4659 8.0942-3.4659 0zm0.8668-19.928c-1.733 0-2.5994-1.7329-2.5994-5.1986s0.8665-5.1986 2.5994-5.1986 2.5992 1.7329 2.5992 5.1986c1e-4 3.4657-0.8662 5.1986-2.5992 5.1986zm10.069 18.628c-0.436-1.6679-0.436-4.3971 0-6.065 1.0595-4.0546 1.059 10.118 0 6.065zm-2.2711-22.196c0-11.269 3.4655-11.892 3.4655 1.071 0 13.596-3.4655 9.5936-3.4655-1.071zm11.263 20.897c-2.1066 0-2.5992-2.7919-2.5992-14.729s0.4927-14.729 2.5992-14.729 2.5992 2.7918 2.5992 14.729c1e-4 11.938-0.4926 14.729-2.5992 14.729zm9.2796-3.4658c-2.1153 0-2.5479-31.103 2.895-25.66 1.3158 1.3154-1.4309 25.66-2.895 25.66zm10.648-3.4658c-1.0011 0-1.6602-4.939-1.5602-11.697 0.3664-24.95 5.5169 11.697 1.5602 11.697zm6.958-18.628c-0.0422-7.5262 3.4479-8.3308 3.4127 2.5993-0.0409 12.767-3.3848 3.308-3.4127-2.5993zm11.237 13.43c-1.4296 0-2.5905-0.9748-2.5803-2.166 0.041-2.8125 1.9468-13.265 2.4269-16.029 1.4386 6.385 4.7106 18.195 0.1534 18.195zm17.2-12.644-1.4109 4.8462-0.6605-4.9239c-0.3629-2.708-0.2115-5.3723 0.3369-5.9206 2.0907-2.0909 3.0871 1.3543 1.7345 5.9983zm6.5299 1.4485c-0.2953-7.8085 3.1294-10.614 3.1294-1.0368 0 8.5452-2.8122 9.4769-3.1294 1.0368zm10.603 2.1182c-0.4336-1.6568-0.4493-4.776-0.0345-6.9315 1.0017-5.209 1.0905 10.965 0.0345 6.9315zm6.3894-4.8879c0-6.6812 3.4658-7.1765 3.4658 1.071-1e-4 8.4915-3.4658 5.4555-3.4658-1.071zm21.38 2.2684c-0.4805-1.1914-0.4805-3.1408 0-4.3322 1.1684-2.8952 1.1685 7.228 0 4.3322zm6.9426 1.7658c-0.4748-1.1731-0.5035-3.5126-0.0641-5.1986 1.0677-4.0957 1.2177 8.0496 0.0641 5.1986zm6.3882-4.7983c0-2.2144 3.3597 2.8242 3.3597 5.1985 0 2.2144-3.3597-2.8243-3.3597-5.1985zm8.1094 2.5992c-1.1943-4.5663 1.5225-4.6441 2.7368 0 1.1941 4.5662-1.5225 4.644-2.7368 0zm8.1193 2.9964c-0.5759-0.5758-0.6374-2.0704-0.137-3.3213 1.2879-3.2187 1.5113 4.6957 0.137 3.3213zm6.2455-2.1299c0-3.4369 3.4656-3.4377 3.4656 0 0 3.4368-3.4656 3.4376-3.4656 0zm8.6645-0.8665c0-1.9657 1.0024-2.5838 2.5991 0 1.4261 2.3074-2.5991 2.3134-2.5991 0zm8.6642 1.7329c0-1.9657 1.0023-2.5837 2.5993 0 1.426 2.3074-2.5993 2.3135-2.5993 0zm-123.83-157.57c-1.3141-2.1261 2.5253-4.7177 2.5253-1.0885 0 3.0439-1.04 3.4921-2.5253 1.0885zm231.73 34.676c-1.4678 5.6125-3.168 0.1372-0.7578-2.273 1.286-1.2859 1.5115-0.6093 0.7578 2.273zm13.001-1.4662c-0.4401-1.6832-0.1959-4.6073 0.5426-6.4983 1.0229-2.6187 1.3718-1.8896 1.4647 3.0602 0.1305 6.963-0.7092 8.4013-2.0073 3.4381zm9.2956-0.0844c-0.7946-1.253-1.0815-4.1771-0.6379-6.4982 2.4827-12.988 3.0254 10.263 0.6379 6.4982zm9.8909-0.3212c-0.8636 0-2.0383-1.2194-2.6104-2.7098-1.4296-3.7254 2.5537-12.174 4.7189-10.009 1.966 1.9659 0.1835 12.719-2.1085 12.719zm11.535-1.7328c-1.8154 0-2.5994-1.8291-2.5994-6.065s0.7839-6.065 2.5994-6.065c1.8153 0 2.5991 1.8291 2.5991 6.065s-0.7838 6.065-2.5991 6.065zm12.289-2.3882c-1.5746 4.1032-4.4911 0.9927-4.4911-4.79 0-9.609 7.2305-2.3485 4.4911 4.79zm6.6674-0.1776c-1.4269-1.8877-2.3768-4.5524-2.111-5.9215s1.4581-2.8137 2.6493-3.2104c1.4873-0.4952 2.1489 1.3604 2.1112 5.9215-0.0522 6.2757-0.1985 6.453-2.6495 3.2104zm86.467 134.7c-0.4807-1.1914-0.4807-3.1408 0-4.3322 1.1682-2.8951 1.1685 7.2281 0 4.3322zm6.3463-1.2996c0-5.738 3.4658-5.7821 3.4658 0 0 5.7379-3.4658 5.782-3.4658 0zm10.499 11.264c-0.8969 0-2.1044-0.7665-2.6835-1.7034-1.532-2.4792 0.9485-14.035 2.7714-12.908 2.0656 1.2768 1.9855 14.612-0.0879 14.612zm16.604 4.3321c-4.3032-22.015-4.8469-20.67-9.4163-3.4657-0.3308-15.198-0.9484-16.466 3.5406-16.436 8.7161 0.0594 7.4092 4.0759 5.8757 19.901zm10.154 0.8665c-1.5809 0-2.5995-1.6125-2.5995-4.1156 0-10.894-4.3937-14.946 1.5164-14.946 3.3082 0 3.6823 0.9683 3.6823 9.5307-1e-4 7.3166-0.6039 9.5309-2.5992 9.5309zm12.02-5.4226c-1.4498 10.646-4.5615 6.6248-3.8881-5.024 0.8514-14.73 6.3971-13.399 3.8881 5.024zm7.0416 5.4226c-1.6851 0-2.5925-1.6762-2.5802-4.7654 0.0331-8.2932 2.0981-17.729 3.6677-16.759 0.8313 0.5138 1.5116 5.567 1.5116 11.229 0 7.9958-0.5803 10.295-2.5991 10.295zm7.798-15.698c0-9.0316 3.4656-9.451 3.4656 1.071-1e-4 11.116-3.4656 7.453-3.4656-1.071zm9.1588 6.6315c-0.3953-2.604-0.4033-7.2826-0.0176-10.397 0.937-7.5675 0.9788 16.726 0.0176 10.397zm9.9027 5.6009c-2.1729 0-2.5663-24.827 0.1298-23.928 1.0247 0.3415 1.8044 1.1863 1.733 1.8773-0.3155 3.0526 0.5265 22.051-1.8628 22.051zm9.5973-14.663c-1.608 12.871-3.506 11.259-1.866-1.8661 1.608-12.871 3.5062-11.26 1.866 1.8661zm6.5114 9.9212c-0.4114-2.1313-0.422-6.0302-0.0237-8.6643 0.9678-6.3998 1.0234 13.845 0.0237 8.6643zm3.2818-20.385c-0.9403 8.0539-2.0616 8.0196-2.0616 0-1e-4 -8.0787 3.0068-8.0947 2.0616 0zm7.9021 9.1431c-2.0245 10.89-2.2031 11.198-2.7305 4.7198-1.6716-20.53 8.8125-37.435 2.7305-4.7198zm10.057-16.075c-1.0991 8.4667-0.3748 21.661-2.5775 21.661-2.187 0-0.676-17.378 1.5204-22.68 1.6376-3.9518 1.6954-3.8963 1.0571 1.0188zm3.0909 56.751c-0.4807-1.1913-0.4807-3.1408 0-4.3321 1.1682-2.8952 1.1683 7.228 0 4.3321zm10.261 12.855c-1.2025 2.9724-1.3168 2.9538-1.7965-0.2914-0.2815-1.9063 0.218-6.5849 1.1101-10.397 2.162-9.2384 1.5641-9.3428 1.7961 0.2914 0.096 3.9726-0.4036 8.6514-1.1097 10.397zm0.2371-41.483c-0.5757-0.5758-0.6375-2.0704-0.1367-3.3213 1.288-3.2187 1.5109 4.6956 0.1367 3.3213zm-0.3638-29.062c-0.2993-4.0311 0.2856-8.1592 1.2997-9.1734 1.3035-1.3034 1.844 0.459 1.844 6.0117-1e-4 10.215-2.4377 12.667-3.1437 3.1617zm25.218 9.1413c0.7882-12.704 2.0162-21.071 3.0518-20.794 2.4164 0.6446 1.0408 43.07-1.4989 46.236-2.8639 3.5703-3.1066-0.4074-1.5529-25.442zm-16.088-11.746c1.5898-10.603 3.3541-9.0797 1.7328 1.7329-1.59 10.603-3.3544 9.0797-1.7328-1.7329zm-0.1917 32.603c-0.4747-1.1732-0.5037-3.5126-0.0645-5.1986 1.0678-4.0971 1.2183 8.0504 0.0645 5.1986zm18.964 46.952c-0.7316-2.1946 2.6931-11.577 2.8568-7.2703 0.1462 3.8411-2.0972 9.5495-2.8568 7.2703zm1.7831-21.75c1.2882-3.2188 1.5112 4.6957 0.1368 3.3213-0.5756-0.5758-0.6373-2.0704-0.1368-3.3213zm13.763 15.346c-1.1306 2.7949-1.3551 2.6843-1.8795-0.9246-1.1153-7.6744 6.3064-10.019 1.8795 0.9246zm-11.424-19.064c-0.7388 0.739-2.0482 0.203-2.9099-1.191-3.1677-5.1252-5.5642 1.1721-5.3954 14.177 0.1675 12.909-1.3967 18.398-4.6661 16.378-0.994-0.6142-2.3477-0.2417-3.0087 0.8275-1.8878 3.0548-10.103-6.9159-9.9916-12.128 0.0522-2.4691 0.2788-8.778 0.5033-14.02 0.3901-9.1135 0.4714-9.2652 1.8602-3.4657 0.7986 3.3356 1.024 7.8195 0.5013 9.9639-0.5231 2.1444-0.1753 3.899 0.7728 3.899 5.6136 0 5.8317-73.391 9.4633-75.636 1.6322-1.0087 0.9622 18.072-1.2869 36.646-3.394 28.03-2.3878 36.733 2.9573 25.581 1.2506-2.6093 3.4376-4.9477 4.86-5.1965 3.4117-0.5965 8.0533 2.4518 6.3404 4.1645zm3.6395-25.415c-0.9531 0-1.2627-1.7546-0.6881-3.899 1.6486-6.1507 0.2811-34.224 2.8252-34.224 1.025 0 1.7231 6.1936 1.7091 15.163-0.0255 16.398-1.1248 22.96-3.8462 22.96zm11.258-14.348c-0.3583-4.5558-0.3538-11.574 0.0103-15.596 0.8812-9.7505 0.8567 26.626-0.0103 15.596zm6.9843-11.211c-0.4131-2.1443-0.4131-5.6535 0-7.7979 1.0035-5.2103 1.0035 13.008 0 7.7979zm2463.5 16.462c0.4805 1.1914 0.4805 3.1408 0 4.3322-1.1684 2.8959-1.1684-7.2273 0-4.3322zm-6.3464 3.0326c0 5.782-3.4656 5.7379-3.4656 0 0-5.7821 3.4656-5.738 3.4656 0zm-10.587-3.3484c1.8228-1.1265 4.3035 10.429 2.7712 12.908-0.5791 0.9369-1.7866 1.7034-2.6833 1.7034-2.0733 0-2.1536-13.335-0.0879-14.612zm-10.641-0.9573c4.4893-0.0305 3.8716 1.238 3.541 16.436-4.5693-17.204-5.1133-18.549-9.4163 3.4657-1.5334-15.826-2.8402-19.842 5.8753-19.901zm-14.946 1.7063c5.9099 0 1.5164 4.0517 1.5164 14.946 0 2.5031-1.0186 4.1156-2.5994 4.1156-1.9954 0-2.5991-2.2143-2.5991-9.5308 0-8.5625 0.3738-9.5308 3.6821-9.5308zm-9.2148 8.6149c0.6736 11.649-2.438 15.67-3.8877 5.024-2.5093-18.423 3.0364-19.754 3.8877-5.024zm-12.017-11.078c1.5696-0.97 3.6345 8.4656 3.6677 16.759 0.0125 3.0891-0.895 4.7654-2.5803 4.7654-2.0188 0-2.5994-2.2991-2.5994-10.295 0-5.6623 0.6807-10.716 1.512-11.229zm-6.7105 5.8261c0 8.5239-3.4656 12.186-3.4656 1.071 1e-4 -10.522 3.4656-10.102 3.4656-1.071zm-9.1413-3.7657c0.3857 3.1146 0.3779 7.7932-0.0176 10.397-0.9609 6.3287-0.9194-17.965 0.0176-10.397zm-10.05-7.93c2.6963-0.8987 2.3025 23.928 0.1299 23.928-2.3892 0-1.5474-18.998-1.8628-22.051-0.0713-0.691 0.7083-1.5358 1.7329-1.8773zm-7.6013 7.3992c1.6399 13.125-0.2581 14.737-1.8662 1.8661-1.6401-13.126 0.2578-14.737 1.8662-1.8661zm-8.354 3.1229c0.3984 2.6341 0.3875 6.5331-0.0234 8.6643-0.9998 5.1806-0.9441-15.064 0.0234-8.6643zm-1.2436-11.721c0 8.0196-1.1213 8.0539-2.0615 0-0.9451-8.0947 2.0615-8.0787 2.0615 0zm-7.2334 13.863c-0.5273 6.4787-0.7056 6.1703-2.7305-4.7198-6.082-32.715 4.4021-15.81 2.7305 4.7198zm-11.731-21.813c2.1963 5.3014 3.7075 22.68 1.5205 22.68-2.2031 0-1.4785-13.194-2.5776-21.661-0.6383-4.9152-0.5804-4.9707 1.0571-1.0188zm-4.1482 53.438c0.4807 1.1913 0.4807 3.1408 0 4.3321-1.1683 2.8959-1.1683-7.2273 0-4.3321zm-8.4642 16.896c-0.4797 3.2453-0.594 3.2638-1.7966 0.2914-0.7058-1.7458-1.2058-6.4246-1.1096-10.397 0.2322-9.6343-0.366-9.5299 1.7961-0.2914 0.8921 3.8122 1.3916 8.4909 1.1101 10.397zm-2.0336-41.192c-1.3743 1.3744-1.1514-6.54 0.1367-3.3213 0.5005 1.2508 0.4389 2.7455-0.1367 3.3213zm-0.9358-38.236c1.0139 1.0143 1.5989 5.1423 1.2993 9.1734-0.7058 9.505-3.1433 7.0532-3.1433-3.1617 0-5.5528 0.5405-7.3151 1.844-6.0117zm-40.269 78.794c-0.5244 3.6089-0.749 3.7194-1.8794 0.9246-4.4272-10.944 2.9947-8.5991 1.8794-0.9246zm13.666 7.3284c-0.76 2.2792-3.0029-3.4292-2.8572-7.2703 0.1638-4.3066 3.5886 5.0756 2.8572 7.2703zm-1.7832-21.75c0.5005 1.2509 0.439 2.7455-0.137 3.3213-1.3743 1.3744-1.1511-6.5401 0.137-3.3213zm20.555-57.805c1.6216 10.813-0.1428 12.336-1.7324 1.7329-1.6216-10.813 0.1428-12.336 1.7324-1.7329zm0.1919 32.603c-1.1538 2.8518-1.0032-9.2957 0.0642-5.1986 0.4392 1.6859 0.4106 4.0254-0.0642 5.1986zm-11.886 22.516c5.345 11.152 6.3513 2.449 2.957-25.581-2.2488-18.574-2.9189-37.655-1.2866-36.646 3.6316 2.2446 3.8491 75.636 9.4631 75.636 0.9482 0 1.2961-1.7546 0.7729-3.899s-0.2976-6.6282 0.5012-9.9639c1.3889-5.7995 1.4702-5.6478 1.8604 3.4657 0.2246 5.242 0.4509 11.551 0.5034 14.02 0.1106 5.2119-8.1038 15.183-9.9919 12.128-0.6606-1.0693-2.0144-1.4418-3.0083-0.8275-3.2695 2.0207-4.8337-3.4683-4.6663-16.378 0.1687-13.005-2.2278-19.302-5.3953-14.177-0.8618 1.394-2.1714 1.93-2.9102 1.191-1.7126-1.7127 2.929-4.761 6.3403-4.1644 1.4228 0.2486 3.6099 2.587 4.8603 5.1964zm-7.446-64.166c1.0356-0.2763 2.2634 8.0908 3.0518 20.794 1.5535 25.034 1.3105 29.012-1.553 25.442-2.5396-3.1663-3.9151-45.591-1.4988-46.236zm-9.531-0.404c2.5442 0 1.1768 28.073 2.8254 34.224 0.5742 2.1444 0.2646 3.899-0.6882 3.899-2.7214 0-3.8206-6.5621-3.8462-22.96-0.0139-8.969 0.6841-15.163 1.709-15.163zm-9.1318 8.1787c0.3643 4.0218 0.3684 11.04 0.0103 15.596-0.8668 11.031-0.8912-25.346-0.0103-15.596zm-6.9739-3.4134c0.4131 2.1444 0.4131 5.6535 0 7.7979-1.0034 5.2103-1.0034-13.008 0-7.7979zm343.91-102.21c2.4102 2.4102 0.71 7.8855-0.7578 2.273-0.754-2.8822-0.5284-3.5588 0.7578-2.273zm-15.766-2.6312c0.0928-4.9498 0.4417-5.6789 1.4646-3.0602 0.7385 1.891 0.9827 4.8152 0.5427 6.4983-1.2981 4.9632-2.138 3.5249-2.0073-3.4381zm-6.6504-3.1445c0.4436 2.3211 0.1565 5.2452-0.6379 6.4982-2.388 3.7651-1.8446-19.486 0.6379-6.4982zm-12.637-6.5416c2.165-2.1652 6.1482 6.2834 4.7188 10.009-0.572 1.4904-1.7466 2.7098-2.6104 2.7098-2.292 0-4.0745-10.753-2.1084-12.719zm-9.4266-1.1442c1.8157 0 2.5996 1.8291 2.5996 6.065s-0.7839 6.065-2.5996 6.065c-1.8152 0-2.5991-1.8291-2.5991-6.065s0.784-6.065 2.5991-6.065zm-7.7976 4.9518c0 5.7827-2.9165 8.8932-4.491 4.79-2.7394-7.1385 4.491-14.399 4.491-4.79zm-11.697-4.5195c1.1912 0.3967 2.3835 1.8413 2.6494 3.2104s-0.6841 4.0338-2.1108 5.9215c-2.4512 3.2426-2.5974 3.0653-2.6497-3.2104-0.0379-4.5611 0.6235-6.4167 2.1111-5.9215zm294.95-19.374c-1.4854 2.4036-2.5254 1.9554-2.5254-1.0885 0-3.6292 3.8394-1.0376 2.5254 1.0885zm143.68 307.9c-0.5747 2.1444-1.7344 3.8989-2.5757 3.8989-2.1587 0-1.9126-2.1891 1.0005-8.8986 4.1284-9.5091 2.3364 2.1584 1.5752 4.9997zm-4.6558-62.275c0.5005 1.2509 0.439 2.7456-0.1367 3.3214-1.3745 1.3742-1.1509-6.5402 0.1367-3.3214zm0.9346 11.01c0.4771 1.2712 0.3267 3.8291-0.3345 5.6843-1.1621 3.2616-1.2329 3.2536-2.147-0.2414-1.1191-4.2808 1.0943-9.1371 2.4815-5.4429zm-10.554-31.944c2.2642 2.2643 0.8843 34.658-0.4229 32.523-1.8032-2.9454-1.3955-34.341 0.4229-32.523zm-7.4546 6.5298c0.0537 7.2989-2.9507 20.999-2.8765-0.8664 0.0767-22.272 2.8247-6.2307 2.8765 0.8664zm411.16 196.57c0.9282 2.3233 1.4404 5.4424 1.1387 6.9315-0.4517 2.2273-0.77 2.1445-1.7974-0.467-0.6865-1.7458-1.1992-4.8649-1.1382-6.9314 0.1035-3.5653 0.1953-3.5414 1.7969 0.4669zm-5.1973-18.455c0.9912 1.7037 1.5361 3.8969 1.2109 4.8737-0.9263 2.7777-3.126-0.35-3.0669-4.3614 0.0489-3.3333 0.1915-3.3726 1.856-0.5123zm-6.1274-15.673c2.5024 2.3589 2.7461 3.478 1.1123 5.1119-1.4502 1.4501-2.0918 1.4974-2.0918 0.1541 0-4.9096-4.519-10.449 0.9795-5.266zm-8.1109-17.007c2.0171 1.2465 4.7642 15.374-0.3779 10.232-1.7412-1.7415-1.3877-11.323 0.3779-10.232zm-7.2807-7.9993c0.5005 1.2509 0.439 2.7455-0.1367 3.3214-1.3745 1.3742-1.1509-6.5402 0.1367-3.3214zm-15.047-23.069c0.8193 1.9061 1.5439 4.4404 1.6113 5.6317 0.1357 2.4148-3.3955 4.4785-3.2222-3.4657 0.1021-4.7195 0.3629-5.0704 1.6109-2.166zm-7.6753-10.853c0.6963 0.6954 0.7891 3.0635-0.125 12.585l-1.3105-5.9085c-1.2642-5.7019-0.6138-8.7265 1.4355-6.6769zm-7.813-0.411c1.5601-8.0904 1.0933-8.5154 1.3975 1.2997 0.1255 4.0505-0.1157 7.3647-0.5361 7.3647-1.6851 0-1.9732-2.8978-0.8614-8.6644zm-8.957-15.596c2.0981 0 3.6514 4.4394 3.6514 10.437 0 4.9655-2.0137 7.7664-4.0903 5.6897-1.7056-1.7056-1.3131-16.126 0.4389-16.126zm-9.9487 0.3224c0.1655-21.366 7.1289 6.8418 3.6143 10.356-2.6446 2.6448-3.6925-0.3556-3.6143-10.356zm-3.4483-3.0911c0.3921 5.689-0.1294 8.7417-1.5801 9.2419-1.5825 0.5456-2.1665-2.1875-2.1665-10.141 0-12.716 2.8545-12.03 3.7466 0.8993zm-11.111-19.758c1.4922-3e-4 2.166 3.2342 2.166 10.397 0 9.5568-1.6855 12.947-4.3184 8.686-1.9414-3.1404-0.143-19.082 2.1524-19.083zm-10.543-1.002c0.9429-6.882 1.3779-7.6405 2.5537-4.4616 1.6221 4.3849-0.6182 17.724-2.4727 14.723-0.6699-1.0832-0.7065-5.7006-0.081-10.261zm-6.185-11.892c2.7334 1.6896 0.6924 15.832-0.0059 18.958-0.96 4.2984-1.314 4.5985-2.0444 1.7329-1.3531-5.3105 0.2793-21.786 2.0503-20.691zm-19.93-14.833c0.5679 0 3.3291 1.3567 6.1362 3.015 9.0527 5.3474 6.666 12.949 3.9102 27.31-1.7563-16.816-2.1592-25.127-5.2236-25.127-2.1719 0-2.4053 1.9565-1.4253 11.903 0.7271 7.3838 0.5127 12.311-0.5649 12.977-5.0831 3.1419-4.1276-30.079-2.8326-30.079zm-5.7051 7.3646c-1.3384 16.729-2.2588 17.024-2.2588 0.722 0-17.431 3.6226-17.76 2.2588-0.722zm-37.458 32.078c-1.0562 4.0337-0.9673-12.141 0.0347-6.9316 0.4145 2.1555 0.3989 5.2748-0.0347 6.9316zm29.416-46.808c0.481 1.1913 0.481 3.1408 0 4.3322-1.1684 2.8959-1.168-7.2274 0-4.3322zm-1.686 52.852c0.436 1.668 0.436 4.3972 0 6.065-1.0591 4.0538-1.0591-10.119 0-6.065zm-7.9629-60.318c0.8633-0.5338 1.5698-0.2083 1.5698 0.7231 0 2.7516 2.7363 7.1754 0.3877 7.1754-2.2954-1e-4 -3.9482-6.6683-1.9575-7.8985zm-7.1636-3.4483c1.1484 1.3838 1.8291 3.8093 1.5117 5.3899-0.5122 2.5554-0.9121 2.5016-3.6084-0.4864-5.6001-6.2051-2.4048-10.328 2.0967-4.9035zm-5.563 11.398c3.0005 0.1173 19.7 16.682 19.339 26.147-0.1318 3.479-0.4082 3.2559-1.7603-1.4188-2.3149-8.0046-4.6631-8.4881-6.0229-1.2404-2.1216 11.308 4.1602 9.0106 3.0806 28.881-0.7842 14.428-3.8057 15.541-3.8057 1.402 0-5.6622-0.7158-10.738-1.5913-11.278-2.2183-1.3711-1.4077-31.722-2.8237-34.013-6.9375-11.224-2.3955 36.908-5.9819 39.124-2.5518 1.577-1.9635-47.663-0.4337-47.603zm-2.0234 86.592c-1.335 0-1.8921-24.591-0.5752-25.399 1.7529-1.0768 1.4766 25.399 0.5752 25.399zm-6.2686-107.44c1.5444 0 5.2598 5.4282 5.2598 7.684 0 1.6818-2.6777 1.0752-4.8521-1.0992-2.4941-2.4941-2.747-6.5848-0.4077-6.5848zm0.377 14.257c3.1948 1.0657 0.9458 40.511 0.6553 40.802-1.2803 1.2803-5.001-42.25-0.6553-40.802zm-0.6162 82.279c0.3511 2.6863-0.7734 5.5797-2.9604 7.6167-5.2104 4.8543-5.4404 4.1016-1.3232-4.3319 3.3646-6.8934 3.7714-7.2053 4.2836-3.2848zm-10.265-86.901c4.3911-2.7137 3.7373 31.954 2.7651 31.954-3.6034 1e-4 -6.1855-29.84-2.7651-31.954zm-6.7631-13.967c0 2.851-3.4653 6.3116-3.4653 0-1e-4 -6.4037 3.4653-2.8043 3.4653 0zm-4.3218 17.623c0.3706-5.0351 4.3164-5.8271 4.3457-0.8723 0.0132 2.2238 0.4937 5.7979 1.0684 7.9423 2.0141 7.5147-6.1993 3.5844-5.4141-7.07zm-8.149-17.193c0.9141-13.767 3.8066-10.725 3.8066 4.0043 0 6.6152-0.689 12.028-1.5308 12.028-2.3055 1e-4 -3.0106-4.9699-2.2758-16.032zm-9.0834-16.026c2.9385 6.7834 4.7271 9.4217 2.917 17.329-1.5024 6.5608-1.6548 6.6923-2.8525 2.4603-1.4854-5.2463-0.4874-14.395-0.0645-19.789zm-9.3116-1.9343c0.7183-0.4438 1.7759 1.0666 2.3506 3.3565 1.4507 5.781 0.3047 16.496-1.4712 13.753-1.8545-2.8653-2.5342-16.087-0.8794-17.11zm-9.1841-3.1443c2.0029-1.238 4.791 12.876 0.0503 12.876-2.042-1e-4 -2.0869-11.618-0.0503-12.876zm-6.7373-2.7193c4.4937 6.9529-1.7559 15.284-1.7061 4.0012 0.0196-4.8997 0.4591-5.9307 1.7061-4.0012zm-11.463-4.7101c1.7852-1.7855 4.5317 1.6559 4.5317 5.6787 0 2.3264-0.6948 4.23-1.5449 4.23-1.7163 0-4.3057-8.5899-2.9868-9.9087zm-7.5982-3.9543c0.9526 0 1.7329 0.7161 1.7329 1.5912s0.4731 2.8246 1.0518 4.3322c1.0488 2.7329-1.1694 3.779-3.3623 1.5857-1.7979-1.7976-1.3584-7.5091 0.5776-7.5091zm-9.7016-4.1579c1.3354 0.5125 2.2681 2.0251 2.0718 3.3612-0.5684 3.8716-2.2461 4.6547-3.4199 1.5962-1.6993-4.4282-1.2804-5.9662 1.3481-4.9574zm-9.1485-2.2104c3.6284 6.2445-1.9976 5.1613-1.8916-0.4188 0.043-2.2531 0.3814-2.1783 1.8916 0.4188zm-126.7-34.362c0.9595-0.5932 2.2295 0.1844 2.8218 1.7279 1.332 3.4716-1.48 13.805-3.2676 12.006-1.9209-1.9328-1.5781-12.483 0.4458-13.734zm-7.4927 12.679c0.5005 1.2509 0.439 2.7455-0.1367 3.3213-1.3745 1.3743-1.1514-6.5401 0.1367-3.3213zm-7.7734-12.156c0.8633 0.8634 1.3345 6.5591 1.0469 12.657-0.4575 9.7048-0.7861 10.629-2.6328 7.4068-2.44-4.256-0.9874-22.637 1.5859-20.064zm-10.542-4.8473c2.8682 0 3.269 1.3814 3.269 11.264 0 10.329-1.6265 13.909-4.3311 9.5325-0.5884-0.9521-1.3257-6.0207-1.6382-11.264-0.4999-8.3867-0.1757-9.5325 2.7003-9.5325zm-17.658 38.123c-0.1494 9.5307-0.4878 17.329-0.751 17.329-1.6333 0-2.582-7.3746-2.582-20.07 0-19.118 3.7026-20.748 3.333 2.741zm6.4868 23.105c-1.7544-1.7547-1.3813-36.968 0.3921-36.968 2.7773 0 3.6509 5.2161 3.6509 21.803 0 14.961-0.8941 18.314-4.043 15.165zm1.3232-62.961c3.2168 0 3.5435 0.852 2.9907 7.7979-0.9292 11.687-4.3525 10.432-5.9072-2.166-0.5893-4.7747-0.1455-5.6319 2.9165-5.6319zm-11.823 1.0042c2.4272-6.3253 5.874-0.7189 4.4434 7.227-1.8384 10.21-6.3707-2.2046-4.4434-7.227zm-46.646 22.823c-1.0591 4.0531-1.0596-10.12 0-6.065 0.436 1.6679 0.436 4.3971 0 6.065zm7.4697 1.2997c0-8.0943 3.4658-8.0405 3.4658 0 0 8.0942-3.4658 8.0403-3.4658 0zm33.459 12.532c-0.9658 13.199-1.3721 14.432-2.8901 8.7645-1.6328-6.0957-1.3057-27.361 0.4209-27.361 2.5449-1e-4 3.373 6.2381 2.4692 18.597zm-2.2676-37.658c2.335 3.6124 2.1431 12.13 0 12.13-0.9531 0-1.7236-3.3141-1.7061-7.3647 0.0191-5.3935 0.4761-6.669 1.7061-4.7654zm-8.5747 42.193c-1.9546 1.9542-2.1631 0.6674-2.562-15.782-0.3193-13.144 3.2227-10.383 3.8618 3.0099 0.2905 6.0852-0.2871 11.76-1.2998 12.772zm-2.9761-45.658c3.8052 0 4.7642 2.3071 3.5283 8.4863-1.2725 6.3641-4.1074 7.1827-4.1074 1.1862 0-6.6651-3.2119-9.6725 0.5791-9.6725zm-7.0586 7.1232c-1.2891 4.9291-2.188 3.9471-2.1587-2.3579 0.0396-8.3156 3.1954-1.6081 2.1587 2.3579zm-0.4516 15.404c0.9526 0 1.7324 3.8989 1.7324 8.6642 0 8.7856-0.2432 9.5763-2.3105 7.5091-1.8448-1.8452-1.3335-16.173 0.5781-16.173zm-9.5313-24.26c1.7329 0 2.5996 1.7329 2.5996 5.1986s-0.8667 5.1986-2.5996 5.1986-2.5991-1.7329-2.5991-5.1986 0.8662-5.1986 2.5991-5.1986zm-7.7978 6.8292c0 10.665-3.4653 14.666-3.4653 1.071 0-12.963 3.4653-12.34 3.4653-1.071zm-11.264-8.562c2.1069 0 2.5996 2.7918 2.5996 14.729 0 11.938-0.4927 14.729-2.5996 14.729-2.1064 0-2.5991-2.7919-2.5991-14.729 0-11.937 0.4927-14.729 2.5991-14.729zm-12.175 0.3333c5.4434-5.4432 5.0107 25.66 2.8955 25.66-1.4638 1e-4 -4.2109-24.344-2.8955-25.66zm-6.1929 10.497c0.0996 6.7578-0.5591 11.697-1.5601 11.697-3.9565 0 1.1939-36.647 1.5601-11.697zm-8.518-6.9314c-0.0278 5.9073-3.3721 15.366-3.4126 2.5993-0.0352-10.93 3.4546-10.126 3.4126-2.5993zm-11.084-4.7654c0.48 2.7639 2.3857 13.216 2.4263 16.029 0.0107 1.1912-1.1504 2.166-2.5801 2.166-4.5572 0-1.2852-11.81 0.1538-18.195zm-15.619-0.4472c0.5483 0.5482 0.6997 3.2126 0.3369 5.9206l-0.6606 4.9239-1.4111-4.8462c-1.3521-4.644-0.356-8.0892 1.7348-5.9983zm-8.2646 7.4468c-0.3174 8.4401-3.1294 7.5084-3.1294-1.0368 0-9.5771 3.4248-6.7718 3.1294 1.0368zm-10.568-4.8133c0.415 2.1554 0.3989 5.2747-0.0347 6.9315-1.0561 4.0336-0.9672-12.14 0.0347-6.9315zm-6.4243 2.0436c0 6.5265-3.4653 9.5625-3.4653 1.071 0-8.2474 3.4653-7.7522 3.4653-1.071zm-21.379-2.0638c0.4805 1.1914 0.4805 3.1408 0 4.3322-1.1684 2.8958-1.1684-7.2274 0-4.3322zm-6.8784 0.8994c0.4395 1.6861 0.4106 4.0255-0.064 5.1986-1.1538 2.851-1.0034-9.2943 0.064-5.1986zm-6.4521 0.4003c0 2.3743-3.3594 7.4129-3.3594 5.1985 0-2.3743 3.3594-7.4129 3.3594-5.1985zm-10.846 2.5992c1.2144-4.6441 3.9312-4.5663 2.7368 0-1.2144 4.644-3.9312 4.5662-2.7368 0zm-5.2452-0.3249c0.5 1.2509 0.4385 2.7455-0.1377 3.3213-1.374 1.3744-1.1503-6.54 0.1377-3.3213zm-6.3828 1.1914c0 3.4376-3.4658 3.4368-3.4658 0 0-3.4377 3.4658-3.4369 3.4658 0zm-11.264-0.8665c1.5969-2.5838 2.5994-1.9657 2.5994 0 0 2.3134-4.0252 2.3074-2.5994 0zm-8.664 1.7329c1.5969-2.5837 2.5994-1.9657 2.5994 0-1e-4 2.3135-4.0257 2.3074-2.5994 0zm416.75-149.03c0 1.9623-1.0093 2.5725-2.5991 0-1.4248-2.3058 2.5991-2.3154 2.5991 0zm-19.062-3.4658c0 2.2895-3.4658 2.2926-3.4658 0 0-2.2894 3.4658-2.2926 3.4658 0zm-63.684-9.4894c0.9443 4.9416-1.2451 7.4557-2.8496 3.2727-2.9707-7.7401 1.3872-10.922 2.8496-3.2727zm-10.742-2.7234c1.2432-1.9648 1.5977-1.6617 1.6187 1.3824 0.0273 4.0082-0.853 4.9485-2.356 2.5166-0.4702-0.7603-0.1382-2.5149 0.7373-3.899zm-13.951-2.6188c0 3.6482-3.4658 3.1548-3.4658 1.0711 0-2.0799 3.4658-4.7045 3.4658-1.0711zm-20.535-0.6775c0.7446-2.2339 3.1216-2.6352 3.3359-0.5632 0.1666 1.6076-4.2748 3.3815-3.3359 0.5632zm-9.7729-3.5806c0.9893-1.6005 4.3149-0.8321 4.3149 0.9969 0 0.9194-5.788 1.3867-4.3149-0.9969zm-118.72-7.6674c0 0.9053-3.4658 1.4057-3.4658-1.071 0-2.5222 3.4658 0.1565 3.4658 1.071zm-44.386 17.117c1.3325-3.4722 4.5303-1.5601 4.5303 2.7091 0 1.7937-0.7856 3.7465-1.7456 4.3397-2.2271 1.3764-4.1499-3.491-2.7847-7.0488zm-12.172-17.219c-1.3604 3.5459-2.3589 3.3237-2.3589 0 1e-4 -3.4679 3.688-3.4635 2.3589 0zm1.1065 15.596c0 3.4376-3.4658 3.4368-3.4658 0 0-3.4377 3.4658-3.4368 3.4658 0zm-8.6646-2.5993c0 4.5884-3.4653 4.5796-3.4653 0 0-4.5884 3.4653-4.5796 3.4653 0zm-8.664-2.497c0 5.6846-3.4658 5.8286-3.4658-1.071 0-7.2055 3.4658-4.4373 3.4658 1.071zm-13.958-5.0334c2.3882-2.3878 5.2935 0.3748 5.2935 5.0333 0 2.4462-1.0112 4.2299-2.3975 4.2299-2.8575 1e-4 -5.0723-7.0866-2.896-9.2632zm-9.4361 2.3318c2.1289-1.7667 2.5991-1.6483 2.5991 0.6543 0 3.8934-5.1987 2.8664-5.1987 2.1571 0-0.3598 1.1699-1.6249 2.5996-2.8114zm-9.5307 1.7328c0 2.2894-3.4658 2.2927-3.4658 0-1e-4 -2.2894 3.4658-2.2926 3.4658 0zm-15.267-4.7653c0.7148-8.6379 3.8291-8.6071 4.5415 0 0.418 5.0573-0.085 6.4982-2.271 6.4982s-2.689-1.4409-2.2705-6.4982zm-9.1372-7.3646c2.1943 0 3.1338 3.4415 2.231 8.1657-1.1729 6.1349-3.8193 4.6792-3.8193-2.1007-1e-4 -3.3358 0.7142-6.065 1.5883-6.065zm-8.5201 6.9313c0 6.9345-3.4658 6.8915-3.4658 0 0-6.9343 3.4658-6.8914 3.4658 0zm-12.584-4.8724c1.6572 0.3191 3.2898 2.0187 3.6282 3.7768 1.3557 7.0367-6.6406 7.462-6.6406-0.0422 0-3.1658 0.8022-4.1603 3.0124-3.7346zm-9.0773 1.4068c2.9165 0 3.0337 0.3173 1.5474 4.1904-1.4858 3.8719-4.1467 3.4069-4.1467-0.7248-1e-4 -1.9254 1.1554-3.4656 2.5993-3.4656zm-10.397 0c4.1382 0 3.1152 10.336-1.4443 5.7762-2.1107-2.1106-1.1941-5.7762 1.4443-5.7762zm-6.9317 3.4656c0 2.7346-4.3323 5.3294-4.3323 0 1e-4 -5.3366 4.3323-2.7436 4.3323 0zm-13.178-2.487c1.7839-1.1026 3.9348 3.3549 2.3726 4.9169-1.8594 1.8595-3.9236 1.0907-3.9236-1.4612 0-1.3733 0.698-2.9284 1.551-3.4557zm-11.688 4.3066c0.7444-2.2339 3.1216-2.6352 3.3357-0.5632 0.1668 1.6075-4.2749 3.3816-3.3357 0.5632zm-7.1914-0.0867c0 2.2894-3.4656 2.2926-3.4656 0 1e-4 -2.2894 3.4656-2.2926 3.4656 0zm-15.596 1.7329c0 1.9624-1.0095 2.5725-2.5994 0-1.4247-2.3057 2.5994-2.3154 2.5994 0zm-52.853 5.1986c-1.5964 2.5838-2.5989 1.9658-2.5989 0 1e-4 -2.3134 4.0252-2.3073 2.5989 0zm-21.66 3.4657c0 2.2894-3.4661 2.2926-3.4661 0 1e-4 -2.2894 3.4661-2.2926 3.4661 0zm-15.596 3.4658c0 4.5884-3.4656 4.5796-3.4656 0 0-4.5883 3.4656-4.5796 3.4656 0zm-73.647 29.459c1.4231-2.3025 4.3323-2.2484 4.3323 0-1e-4 2.3075-5.753 2.2987-4.3323 0zm53.233-5.2748c-1.0444 7.1162-2.1138 6.6648-2.1138-0.8924 1e-4 -8.259 3.1414-6.1077 2.1138 0.8924zm-4.3957-21.043c0.5005 1.2509 0.439 2.7456-0.1367 3.3213-1.3746 1.3743-1.1514-6.5401 0.1367-3.3213zm-4.5999 16.787c3.8086 9.168-0.719 14.382-1.178 3.0248-0.1984-4.9193 0.0867-5.6515 1.178-3.0248zm-4.3816-16.462c1.5969-2.5837 2.5994-1.9657 2.5994 0 0 2.3134-4.0256 2.3074-2.5994 0zm-6.0652 0.8664c0 3.4377-3.4658 3.4369-3.4658 0 0-3.4376 3.4658-3.4368 3.4658 0zm-4.1506 12.282c1.8572-4.8387 4.1506-1.0353 4.1506 6.8821 0 5.6853-0.6787 7.6956-2.5991 7.6956-2.7046 0-3.6687-9.0602-1.5515-14.578zm-4.5137-10.549c0 3.4376-3.4656 3.4368-3.4656 0 1e-4 -3.4377 3.4656-3.4368 3.4656 0zm0 17.329c0 7.6585-2.1204 10.337-4.0994 5.1796-2.2953-5.9818 4.0994-22.739 4.0994-5.1796zm-8.9768 3.899c0.3811 2.6827-0.3325 3.899-2.2869 3.899s-2.6677-1.2163-2.2864-3.899c0.7347-5.1736 3.8387-5.1736 4.5733 0zm-1.4201-18.833c0 2.3496-3.4661 4.3887-3.4661 2.1419 0-2.3495 3.4661-4.3886 3.4661-2.1419zm-15.219 3.4026c0.9487-2.8492 7.2993-4.5679 6.177-1.1974-0.9487 2.8492-7.2995 4.5678-6.177 1.1974zm-8.259 0.6402c2.0706-2.0703 4.3625 3.8433 4.3896 11.324 0.0146 4.0506-0.6799 7.3647-1.5437 7.3647-1.8803 0-4.4773-17.057-2.8459-18.689zm-7.8516-0.3725c0.8774 0 2.0271 2.1444 2.5552 4.7654 1.1353 5.6359-1.0046 16.864-2.8606 15.008-1.8657-1.8658-1.5894-19.774 0.3054-19.774zm-11.646 12.976c0.6943-12.753 3.8206-12.584 4.5054 0 0.4253 7.8157 0.0159 9.5507-2.2527 9.5507-2.2681 0-2.678-1.735-2.2527-9.5507zm-5.5454 2.7215c0 8.9884-2.354 11.493-4.1345 4.3992-2.337-9.3107 4.1345-23.771 4.1345-4.3992zm-11.264-8.7666c5.238 0 1.6025 22.796-1.4917 14.733-2.1675-5.6484-1.2478-14.733 1.4917-14.733zm-8.5903 3.8287c0.5173 0.5172 1.3992 3.7663 1.9595 7.2202 1.3472 8.3011-2.3401 8.4278-3.896 0.1339-1.0894-5.8067-0.136-9.4267 1.9365-7.3541zm-7.2976 9.601c1.4434 7.5846-2.3071 7.6759-2.3071-0.722 0-7.4266 0.8037-7.1751 2.3071 0.722zm-17.754 2.9459c0.1467-6.7645 0.1667-6.7843 1.6877-1.6878 0.9512 3.1892 0.8945 5.8011-0.1489 6.8449-1.0955 1.0951-1.6355-0.7158-1.5388-5.1571zm-7.8643-2.0794c1.2573-2.8881 1.3547-2.8881 2.0454 0 0.3989 1.6678 0.3989 4.3971 0 6.065-0.6907 2.8881-0.7881 2.8881-2.0454 0-0.7261-1.6679-0.7261-4.3972 0-6.065zm-6.4477 5.6318c0.2249 3.3357 0.124 6.065-0.2234 6.065-1.7898 0-2.9426-2.8283-2.9426-7.2202 0-7.0489 2.6794-6.0713 3.166 1.1552zm-10.097 0c0.8188 1.9062 1.5439 4.4404 1.6108 5.6318 0.1357 2.4142-3.394 4.48-3.2222-3.4657 0.1022-4.7196 0.3632-5.0704 1.6114-2.1661zm-6.9316 5.0962c0 5.4617-3.4658 8.3162-3.4658 1.0711 0-7.1137 3.4658-6.6208 3.4658-1.0711zm-9.9453 0.777c1.0364 3.9627-2.1194 10.682-2.1582 2.3579-0.0298-6.3048 0.8691-7.2869 2.1582-2.3579zm-10.849 0.1918c2.25 0 1.606 3.9672 1.8628 6.4549 0.0715 0.6911-0.7083 1.5358-1.7329 1.8773-2.4725 0.8242-2.4136-8.3322-0.1299-8.3322zm-6.4793 8.8562c-1.2893 4.9291-2.1882 3.947-2.1584-2.3579 0.0393-8.3156 3.1953-1.6081 2.1584 2.3579zm-7.969-2.3579c0.4807 1.1913 0.4807 3.1408 0 4.3322-1.1684 2.8958-1.1679-7.2274 0-4.3322zm-8.6281 5.3069c0.5005 1.2509 0.4387 2.7455-0.1367 3.3213-1.3746 1.3744-1.1514-6.5401 0.1367-3.3213zm-8.1153 4.6571c0 3.4377-3.4656 3.4369-3.4656 0 0-3.4377 3.4656-3.4368 3.4656 0zm-15.199 5.7401c1.0713-3.2132 4.8015-3.7461 4.8015-0.686 0 3.7221-5.686 3.3399-4.8015 0.686zm-14.809 5.1986c0.5002 1.2509 0.4387 2.7455-0.137 3.3213-1.3743 1.3743-1.1511-6.5401 0.137-3.3213zm-46.702 75.271c-0.8867 9.8422-0.8821-24.527 0-14.729 0.365 4.0504 0.365 10.679 0 14.729zm8.2172-24.693c1.2524 0 2.2468 1.7546 2.2087 3.8989-0.0994 5.694 2.9336 32.5 1.9839 32.465-3.2754-0.1273-4.6438-4.9831-5.4866-19.468-0.7738-13.299-0.4984-16.896 1.294-16.896zm-9.4863-34.657c1.8186 0 2.0984 1.4398 2.6072 13.43 0.3142 7.4058-1.332 9.7209-3.2881 4.6237-1.7114-4.46-1.1985-18.053 0.6809-18.053zm-10.397 37.522c0-9.1236 3.6599-8.5765 3.8096 11.696 0.2649 35.909-3.8096 1.6654-3.8096-11.696zm2.7691-24.599c0.7905 14.016-4.4233 10.808-4.478-5.0391-0.034-9.7288 3.8935-5.3093 4.478 5.0391zm-7.7349 45.56c-0.4104 9.9254-3.2136 6.0224-4.3567-6.065-1.1641-12.314 0.845-25.376 2.865-18.628 1.1333 3.7845 1.8592 15.801 1.4917 24.693zm-3.9541-51.553c2.0154 0 3.73 4.2867 3.6948 9.2393-0.0308 4.3736-2.6357 9.1444-3.8083 6.9747-1.5696-2.9046-1.4763-16.214 0.1135-16.214zm-6.4096 45.488c-0.636 8.712-3.7212 11.566-3.7468 3.4657-0.043-13.685-3.957-22.96 0.5303-22.96 3.0998-1e-4 4.1667 6.4663 3.2165 19.495zm-3.7828-42.857c3.033-1.8744 5.6079 14.319 0.4841 16.006-2.6345 0.8676-3.0959-14.392-0.4841-16.006zm-7.6591 28.938c1.1948 1.1946 0.1179 18.664-0.0879 23.017-1.385-11.815-3.7273-26.832 0.0879-23.017zm-1.4861-20.705c0.4392 1.6859 0.4102 4.0253-0.0645 5.1984-1.1538 2.8519-1.0032-9.2956 0.0645-5.1984zm-8.3538 37.224c-0.1216-2.1444-0.406-5.6727-0.6318-7.8406-0.5247-5.0343 2.5859-8.941 2.5859 2.973 0 8.6463-1.5242 12.444-1.9541 4.8676zm-1.8916-38.477c1.3083-2.117 4.29 7.9671 2.2927 9.9645-1.7072 1.7075-3.8232-7.4881-2.2927-9.9645zm-6.4468 40.643c-1.8708 0-2.063-0.6815-2.5752-9.1246-0.438-7.2257 3.2529-4.5962 3.8748 2.7603 0.3101 3.6674-0.2407 6.3643-1.2996 6.3643zm-0.1047-31.294c0 7.1137-3.4656 6.6208-3.4656 1.071 0-5.4618 3.4656-8.3162 3.4656-1.071zm-13.647-3.5336c1.311-0.8303 2.968-1.5223 3.6829-1.5362 1.7124-0.035 1.5117 38.096 0.5354 38.096-3.6755 0-7.6438-34.39-4.2183-36.56zm-6.2683 13.276c1.8093 18.551 4.0095 23.285 0.4004 23.285-3.2573 0-4.7454-7.2402-4.7454-23.09 0-14.051 2.9805-14.184 4.345-0.1942zm-13.191-6.9282c2.5359-1.5672 3.6475 3.7223 3.6475 17.358 0 11.824-1.0066 14.736-4.0435 11.699-1.7434-1.7435-1.386-27.956 0.396-29.058zm-10.244 6.6036c1.7893-9.7749 3.7686-3.6577 3.0388 9.3931-1.4795 26.463-5.0471 1.5765-3.0388-9.3931zm-8.5813-2.3837c2.4277 0 3.0615 2.5045 3.8362 15.163 0.584 9.5481 0.2905 10.83-2.4805 10.83-2.7563 0-3.1433-1.6-3.1433-12.997 0-7.7726 0.7185-12.996 1.7876-12.996zm-7.0051 21.228c0.0125 3.0891-0.8955 4.7654-2.5801 4.7654-4.4033 0-1.3713-13.845-3.6511-19.786-1.6043-4.1797 6.1448-6.6135 6.2312 15.021zm-10.378-4.7654c0 15.047-3.4656 14.971-3.4656 0 0-15.047 3.4656-14.971 3.4656 0zm-10.831-9.0919c3.3989-1.1417 2.0647 22.088 1.4021 22.088-3.1179 0-4.4546-21.063-1.4021-22.088zm-10.588 2.4964c4.9946-4.9949 2.3794 19.592 0.4644 19.592-1.7669 0-2.1903-17.866-0.4644-19.592zm-14.692 3.6033c0.8403-1.3235 1.4114 0.7408 1.4268 5.1583 0.0644 17.737-3.7679-1.469-1.4268-5.1583zm-8.7874 10.935c0.1482-9.1784 0.2422-9.3766 1.8289-3.8628 3.8239 13.285-2.1592 24.318-1.8289 3.8628zm-10.011 13.144c0.6545-1.7458 1.1907-7.0094 1.1907-11.697 0-11.255 3.4656-11.66 3.4656 0.796 0 6.6478-0.8379 10-2.9238 11.697-2.5738 2.0935-2.7811 1.9983-1.7325-0.796zm-7.284-8.8113c0.2458-11.391-0.3999-11.765 1.7468-1.0108 1.6912 8.4729 1.4202 13.205-0.637 11.13-0.7147-0.7209-1.2142-5.2747-1.1098-10.119zm-31.483 9.754c1.3484-2.3133 1.7415-1.3442 1.7825 4.3976 0.1226 17.137-4.3039-0.0721-1.7825-4.3976zm16.481-15.591c1.9651-1.9649 4.3618 3.6897 4.3892 10.356 0.0146 3.5178-0.6799 6.8326-1.5435 7.3663-1.8111 1.1193-4.5613-16.006-2.8457-17.722zm-8.1099 3.0932c1.5247 0 3.8608 11.682 3.8608 19.303 0 3.1622-2.6633 4.4837-3.8782 1.9243-1.4955-3.1524-1.4811-21.228 0.0174-21.228zm-8.4988 1.2698c1.4622-1.462 1.9629-0.769 1.9629 2.7158 0 5.2136-1.2974 6.0968-2.8835 1.963-0.5735-1.4937-0.159-3.5992 0.9206-4.6788zm-9.9848 20.171c6.5962-7.9474 5.3953 6.4757 2.1975 7.524-2.8506 0.9344-4.5076-4.7401-2.1975-7.524zm-5.3807 8.0177c0 4.0174-3.4656 7.5334-3.4656 0 1e-4 -7.4759 3.4656-4.0765 3.4656 0zm-6.9318-19.062c0 4.5884-3.4656 4.5796-3.4656 0 0-4.5884 3.4656-4.5796 3.4656 0zm-10.863 1.5939c1.4675-5.6112 3.1694-0.1385 0.7576 2.2731-1.2857 1.2858-1.5113 0.6093-0.7576-2.2731zm-3.6265 28.731c1.3608-3.5459 2.3596-3.3238 2.3596 0 0 3.4678-3.6887 3.4636-2.3596 0zm-2.8389-26.962c0 2.9155-0.3901 5.3008-0.8665 5.3008-1.0083 0-0.9199 0.2262-1.8376-4.678-0.9197-4.9125 2.7041-7.879 2.7041-0.6228zm-9.2029 0.5355c0.4358 1.6678 0.4358 4.3971 0 6.0651-1.0593 4.0529-1.0595-10.119 0-6.0651zm-19.266 6.4982c0 4.6256-2.7231 4.5903-2.7231 0-1e-4 -4.6256 2.7231-4.5903 2.7231 0zm-8.2503 2.3c0.4092 4.841-0.1094 6.3643-2.166 6.3643-2.0085 0-2.7039-1.8198-2.7039-7.0759 1e-4 -9.0287 4.0975-8.43 4.8699 0.7116zm-11.82-4.8877c2.4526-1.5154 2.0935 11.252 0.3875 11.252-2.0562 0-2.4009-10.008-0.3875-11.252zm-9.5117 1.961c2.0417-0.7834 2.5994 0.4786 2.5994 5.8796 0 4.9578-0.7253 6.8772-2.5994 6.8772-1.7996 0-2.5991-1.8086-2.5991-5.8796-1e-4 -3.6278 0.9953-6.2617 2.5991-6.8772zm-8.3833 3.6592c0.4807 1.1913 0.4807 3.1408 0 4.3321-1.1685 2.896-1.1678-7.2273 0-4.3321zm-9.6426 0.4333c0.8237 0 2.0015 2.0066 2.6169 4.4591 1.2764 5.0856-1.1111 8.6526-3.915 5.8489-2.0515-2.0518-1.0122-10.308 1.2981-10.308zm-9.3716 3.8989c0.4358 1.6679 0.4358 4.3971 0 6.0651-1.0588 4.0531-1.0596-10.119 0-6.0651zm-11.804-2.1661c2.5161 0 5.2432 4.2501 4.7749 7.4412-0.552 3.7596-3.5459 6.8613-5.1118 5.2955-1.7368-1.7369-1.4461-12.737 0.3369-12.737zm-12.425 4.0188c1.4233-3.7099 3.9722-0.7293 3.9722 4.6456 0 2.7468-0.6904 5.4209-1.5347 5.9425-1.7898 1.1061-3.7153-7.2581-2.4375-10.588zm-6.425 6.2762c0 7.1136-3.4656 6.6208-3.4656 1.071 0-5.4617 3.4656-8.3161 3.4656-1.071zm-10.398-0.7642c0.8193 1.9063 1.5437 4.0506 1.6113 4.7655 0.1248 1.3304-3.3948 3.2354-3.2219-3.4657 0.1079-4.2228 0.291-4.3708 1.6106-1.2998zm-9.1047-0.4392c3.1365-1.0329 2.011 8.2372-0.9241 8.2372-2.926-1e-4 -2.1142-7.2368 0.9241-8.2372zm-8.2234 3.9049c0 3.3171-0.9963 3.5524-2.3596 0-1.3272-3.4577 2.3596-3.4738 2.3596 0zm-8.6648 1.6306c0 5.3096-0.9875 5.7385-2.2346 0.9704-1.2012-4.5952 2.2346-6.8999 2.2346-0.9704zm-9.2495-1.1973c0.481 1.1914 0.481 3.1408 0 4.3322-1.168 2.8959-1.168-7.2274 0-4.3322zm-8.0786 3.0325c0 3.4376-3.4661 3.4368-3.4661 0 0-3.4377 3.4661-3.4368 3.4661 0zm-9.6053 0.9862c-1.4856 2.4036-2.5251 1.9554-2.5251-1.0885 0-3.6292 3.8406-1.0402 2.5251 1.0885zm-1351.2-1.0885c0 3.0439-1.0398 3.492-2.5253 1.0885-1.3154-2.1287 2.5253-4.7177 2.5253-1.0885zm-8.6644 0.1023c0 3.4368-3.4657 3.4376-3.4657 0 0-3.4368 3.4657-3.4377 3.4657 0zm-11.545-3.0325c1.1681-2.8952 1.1685 7.2281 0 4.3322-0.4809-1.1914-0.4809-3.1408 0-4.3322zm-7.015 2.1678c-1.2468 4.7681-2.2346 4.3392-2.2346-0.9704-1e-4 -5.9296 3.4362-3.6249 2.2346 0.9704zm-8.5395-2.6011c-1.363 3.5524-2.3596 3.3171-2.3596 0 0-3.4738 3.6867-3.4577 2.3596 0zm-10.583-3.9049c3.038 1.0004 3.85 8.2372 0.9241 8.2372-2.9352-1e-4 -4.0604-9.2701-0.9241-8.2372zm-9.1052 0.4392c1.3196-3.071 1.5032-2.923 1.6112 1.2997 0.1727 6.7011-3.3469 4.7961-3.2222 3.4657 0.0677-0.7148 0.792-2.8592 1.611-4.7654zm-6.9314 1.8352c0 5.5498-3.4656 6.0426-3.4656-1.071 0-7.2451 3.4656-4.3907 3.4656 1.071zm-9.8907-7.3472c1.2778 3.33-0.6478 11.694-2.4375 10.588-0.8442-0.5217-1.5348-3.1957-1.5348-5.9425 0-5.3749 2.5487-8.3555 3.9723-4.6456zm-12.425-4.0188c1.7828 0 2.0735 11 0.3369 12.737-1.5658 1.5658-4.5599-1.5359-5.1117-5.2955-0.4685-3.1909 2.2588-7.4411 4.7748-7.4411zm-11.804 2.1661c1.0594-4.0539 1.0588 10.118 0 6.0651-0.436-1.6679-0.436-4.3972 0-6.0651zm-11.989 0.5602c0.6156-2.4525 1.7931-4.4591 2.6169-4.4591 2.3102 0 3.3497 8.2562 1.298 10.308-2.8037 2.8037-5.1914-0.7633-3.9149-5.8489zm-7.0259-4.8924c1.1682-2.8952 1.1683 7.228 0 4.3321-0.4807-1.1913-0.4807-3.1407 0-4.3321zm-8.3833-3.6592c1.6036 0.6155 2.5994 3.2494 2.5994 6.8772 0 4.071-0.7996 5.8796-2.5994 5.8796-1.8738 0-2.5992-1.9193-2.5992-6.8772 0-5.401 0.5578-6.6629 2.5992-5.8796zm-9.5116-1.961c2.0135 1.2444 1.6688 11.252-0.3875 11.252-1.706 0-2.065-12.767 0.3875-11.252zm-11.821 4.8877c0.7725-9.1416 4.87-9.7403 4.87-0.7116 0 5.2561-0.6953 7.0759-2.704 7.0759-2.0565 0-2.5751-1.5233-2.166-6.3643zm-5.5272-2.3c0 4.5903-2.7229 4.6256-2.7229 0 0-4.5903 2.7229-4.6256 2.7229 0zm-21.989-6.4982c1.0596-4.0542 1.0592 10.118 0 6.0651-0.436-1.668-0.436-4.3973 0-6.0651zm-6.4989 0.0873c-0.9181 4.9042-0.8292 4.678-1.8375 4.678-0.4766 0-0.8665-2.3853-0.8665-5.3008 0-7.2562 3.6238-4.2897 2.704 0.6228zm-5.5431 26.339c1.3293 3.4636-2.3594 3.4678-2.3594 0 0-3.3238 0.9986-3.546 2.3594 0zm-3.6264-28.731c0.7538 2.8824 0.5283 3.5589-0.7578 2.2731-2.4115-2.4115-0.7096-7.8843 0.7578-2.2731zm-35.07 4.9044c0.041-5.7419 0.434-6.7109 1.7823-4.3976 2.5215 4.3254-1.905 21.535-1.7823 4.3976zm27.673-6.4983c0 4.5796-3.4658 4.5884-3.4658 0 0-4.5796 3.4658-4.5884 3.4658 0zm-6.9319 19.062c0 7.5334-3.4657 4.0174-3.4657 0 0-4.0765 3.4657-7.4759 3.4657 0zm-8.8464-8.0177c2.3103 2.7839 0.6532 8.4584-2.1974 7.524-3.1976-1.0483-4.3984-15.471 2.1974-7.524zm-9.9847-20.171c1.0797 1.0796 1.4941 3.1851 0.9209 4.6788-1.5863 4.1339-2.8838 3.2507-2.8838-1.963 0-3.4848 0.5009-4.1778 1.9629-2.7158zm-8.4987-1.2698c1.4985 0 1.5129 18.075 0.0175 21.228-1.2151 2.5595-3.8783 1.238-3.8783-1.9243 0-7.6215 2.3363-19.303 3.8608-19.303zm-8.1099-3.0932c1.7153 1.7155-1.0347 18.841-2.8458 17.722-0.8634-0.5337-1.558-3.8485-1.5437-7.3663 0.0278-6.666 2.4246-12.321 4.3895-10.356zm-16.749 4.8262c2.1467-10.754 1.501-10.38 1.7465 1.0108 0.1045 4.8447-0.3949 9.3985-1.1097 10.119-2.0574 2.0747-2.328-2.6573-0.6368-11.13zm-6.728-1.8747c0 4.6875 0.5359 9.951 1.1909 11.697 1.0485 2.7943 0.8408 2.8895-1.7328 0.7959-2.0859-1.6966-2.9241-5.049-2.9241-11.697 1e-4 -12.456 3.466-12.051 3.466-0.7959zm-10.65-5.3095c1.5869-5.5139 1.6808-5.3156 1.8291 3.8628 0.3304 20.455-5.653 9.4224-1.8291-3.8628zm-6.9584-7.0718c2.3412 3.6893-1.491 22.896-1.4271 5.1583 0.0157-4.4175 0.587-6.4817 1.4271-5.1583zm-14.692-3.6033c1.7258 1.7257 1.3022 19.592-0.4644 19.592-1.915 0-4.5304-24.587 0.4644-19.592zm-10.589-2.4964c3.0529 1.0254 1.7161 22.088-1.4019 22.088-0.6624 0-1.997-23.23 1.4019-22.088zm-7.3645 9.0919c0 14.971-3.4657 15.047-3.4657 0 0-14.971 3.4657-15.047 3.4657 0zm-7.6127-10.255c-2.2799 5.9417 0.7521 19.786-3.651 19.786-1.6849 0-2.5927-1.6762-2.5803-4.7654 0.0864-21.634 7.8356-19.2 6.2313-15.021zm-17.072 8.9558c0.7745-12.658 1.408-15.163 3.8363-15.163 1.069 0 1.7872 5.2238 1.7872 12.996 0 11.396-0.3868 12.997-3.1431 12.997-2.7708-1e-4 -3.0645-1.2825-2.4804-10.83zm-4.7451-12.779c2.0083 10.97-1.5596 35.856-3.0392 9.3931-0.7295-13.051 1.2498-19.168 3.0392-9.3931zm-10.244-6.6036c1.7823 1.1015 2.1395 27.314 0.396 29.058-3.0367 3.0368-4.0433 0.1246-4.0433-11.699-1e-4 -13.636 1.1114-18.925 3.6473-17.358zm-89.827 30.646c-0.365-4.0507-0.365-10.679 0-14.729 0.8822-9.7974 0.8866 24.572 0 14.729zm76.636-23.718c1.3646-13.99 4.3451-13.856 4.3451 0.1942 0 15.85-1.4882 23.09-4.7456 23.09-3.6089 0-1.4086-4.7338 0.4005-23.285zm-9.9512-14.812c0.7148 0.0139 2.3721 0.706 3.683 1.5362 3.4255 2.1699-0.5426 36.56-4.2185 36.56-0.9762 0-1.177-38.132 0.5355-38.096zm-6.4983 6.1407c0 5.5498-3.4658 6.0427-3.4658-1.071 0-7.2451 3.4658-4.3907 3.4658 1.071zm-4.8701 23.859c0.6219-7.3565 4.313-9.986 3.8748-2.7603-0.512 8.443-0.7043 9.1246-2.575 9.1246-1.0589 0-1.6096-2.6969-1.2998-6.3643zm-5.1472-34.279c1.5306 2.4763-0.5854 11.672-2.2927 9.9645-1.9974-1.9974 0.9844-12.081 2.2927-9.9645zm-1.2598 30.636c-0.2258 2.1679-0.5101 5.6962-0.6317 7.8406-0.4298 7.5759-1.954 3.7787-1.954-4.8676 0-11.914 3.1104-8.0074 2.5857-2.973zm-8.9856-29.383c1.0677-4.0971 1.2184 8.0504 0.0645 5.1984-0.4748-1.1731-0.5035-3.5125-0.0645-5.1984zm-1.4858 20.705c3.8148-3.8151 1.4725 11.202 0.0878 23.017-0.2058-4.3526-1.2827-21.822-0.0878-23.017zm-7.6595-28.938c2.6118 1.6144 2.1506 16.874-0.484 16.006-5.1236-1.6874-2.5488-17.881 0.484-16.006zm-0.566 23.362c4.4872 0 0.5734 9.2752 0.5303 22.96-0.0256 8.1005-3.1112 5.2464-3.7467-3.4657-0.9505-13.028 0.1164-19.495 3.2164-19.495zm-9.6262-25.993c1.59 0 1.6831 13.309 0.1134 16.214-1.1726 2.1697-3.7775-2.6011-3.8082-6.9747-0.0352-4.9526 1.6792-9.2393 3.6948-9.2393zm-2.4628 26.859c2.0205-6.7478 4.0293 6.3142 2.8652 18.628-1.1428 12.087-3.9463 15.99-4.3566 6.065-0.3672-8.892 0.3585-20.909 1.4914-24.693zm-9.2261-20.867c0.5842-10.348 4.5117-14.768 4.478-5.0391-0.0547 15.847-5.269 19.055-4.478 5.0391zm-1.0409 36.294c0.1498-20.272 3.8098-20.819 3.8098-11.696 1e-4 13.361-4.0747 47.604-3.8098 11.696zm-9.1942-35.788c0.5088-11.99 0.7883-13.43 2.6069-13.43 1.8795 0 2.3923 13.594 0.6809 18.053-1.956 5.0972-3.6021 2.7821-3.2878-4.6237zm-9.0882 25.126c-0.0376-2.1443 0.9564-3.8989 2.2089-3.8989 1.7924 0 2.0677 3.5963 1.2941 16.895-0.8429 14.485-2.2113 19.341-5.4866 19.468-0.9499 0.0352 2.0833-26.77 1.9836-32.465zm-36.276-54.477c1.288-3.2188 1.511 4.6956 0.1368 3.3213-0.576-0.5758-0.6375-2.0704-0.1368-3.3213zm-14.809-5.1986c0.8846 2.6539-4.8014 3.0361-4.8014-0.686 0-3.0601 3.7303-2.5271 4.8014 0.686zm-11.733-5.7401c0 3.4369-3.4658 3.4377-3.4658 0-1e-4 -3.4368 3.4658-3.4377 3.4658 0zm-11.581-4.6571c1.2882-3.2188 1.5112 4.6957 0.1368 3.3213-0.5757-0.5758-0.6373-2.0704-0.1368-3.3213zm-8.6282-5.3069c1.168-2.8951 1.1686 7.228 0 4.3322-0.4807-1.1914-0.4807-3.1409 0-4.3322zm-5.8104 0c0.0297 6.3048-0.8693 7.287-2.1583 2.3579-1.037-3.966 2.119-10.674 2.1583-2.3579zm-8.6378-6.4983c2.2836 0 2.3427 9.1564-0.13 8.3322-1.0244-0.3415-1.8043-1.1862-1.7328-1.8773 0.257-2.4877-0.3871-6.4549 1.8628-6.4549zm-10.849-0.1918c1.2889-4.929 2.188-3.9469 2.1581 2.3579-0.0391 8.3245-3.1945 1.6048-2.1581-2.3579zm-124.31-15.404c0-2.2484 2.9092-2.3025 4.3324 0 1.4206 2.2987-4.3324 2.3075-4.3324 0zm117.84 15.698c0 7.2451-3.4658 4.3906-3.4658-1.0711 0-5.5497 3.4658-6.0426 3.4658 1.0711zm-10.397-6.1673c1.248-2.9043 1.5092-2.5535 1.611 2.1661 0.172 7.9457-3.3578 5.88-3.2219 3.4657 0.0668-1.1914 0.7919-3.7256 1.6109-5.6318zm-10.097 0c0.4865-7.2264 3.1658-8.2041 3.1658-1.1552 0 4.3918-1.1527 7.2202-2.9424 7.2202-0.3476 0-0.4482-2.7293-0.2234-6.065zm-8.4931-5.6318c0.6907-2.8881 0.7881-2.8881 2.0453 0 0.7258 1.6678 0.7258 4.3971 0 6.065-1.2572 2.8881-1.3546 2.8881-2.0453 0-0.3988-1.6679-0.3988-4.3972 0-6.065zm-7.5066 0.3917c1.5209-5.0965 1.5405-5.0767 1.6879 1.6878 0.0967 4.4413-0.4435 6.2522-1.5388 5.1571-1.0437-1.0438-1.1005-3.6558-0.1491-6.8449zm-16.066-1.2582c1.5033-7.8971 2.3071-8.1487 2.3071-0.722 1e-4 8.3979-3.7508 8.3066-2.3071 0.722zm-9.2574-2.3808c0.5605-3.4539 1.4424-6.703 1.9597-7.2202 2.0725-2.0726 3.0258 1.5474 1.9364 7.3541-1.5558 8.2939-5.2432 8.1671-3.8961-0.1339zm-6.6306-11.049c2.7394 0 3.6593 9.0844 1.4917 14.733-3.0941 8.0633-6.73-14.733-1.4917-14.733zm-7.1289 13.166c-1.7805 7.0941-4.1348 4.5892-4.1348-4.3992 0-19.372 6.4717-4.9115 4.1348 4.3992zm-14.185-7.1207c0.6846-12.584 3.811-12.753 4.5052 0 0.425 7.8157 0.0154 9.5507-2.2527 9.5507-2.2686 0-2.6779-1.735-2.2525-9.5507zm-9.6956-8.2111c0.5278-2.621 1.6777-4.7654 2.5549-4.7654 1.8948 0 2.1714 17.908 0.3055 19.774-1.8557 1.8559-3.996-9.3723-2.8604-15.008zm-5.297-4.3929c1.6318 1.6317-0.9653 18.689-2.8455 18.689-0.8636 0-1.5583-3.3141-1.5436-7.3647 0.0271-7.4812 2.3189-13.395 4.3891-11.324zm-8.2585-0.6402c1.1223 3.3705-5.2281 1.6518-6.177-1.1974-1.1222-3.3705 5.2283-1.6518 6.177 1.1974zm-11.753-1.2606c0 2.2467-3.4659 0.2076-3.4659-2.1419 0-2.2468 3.4659-0.2077 3.4659 2.1419zm-4.8862 16.691c0.7345-5.1736 3.8383-5.1737 4.5732 0 0.3811 2.6827-0.3322 3.899-2.2866 3.899s-2.6676-1.2163-2.2866-3.899zm-5.5113-21.228c0 3.4368-3.4656 3.4376-3.4656 0 1e-4 -3.4368 3.4656-3.4377 3.4656 0zm0.6338 22.508c-1.9791 5.1578-4.0995 2.4788-4.0995-5.1796 0-17.56 6.3949-0.8023 4.0995 5.1796zm-9.2979-24.241c0 3.4369-3.4658 3.4377-3.4658 0-1e-4 -3.4368 3.4658-3.4376 3.4658 0zm0.6846 12.282c2.1172 5.5176 1.1531 14.578-1.5514 14.578-1.9202 0-2.5991-2.0103-2.5991-7.6956 0-7.9175 2.2937-11.721 4.1505-6.8821zm-10.215-13.148c1.4259 2.3074-2.5992 2.3134-2.5992 0 0-1.9657 1.0021-2.5837 2.5992 0zm-4.3816 16.462c1.0911-2.6267 1.3762-1.8945 1.1777 3.0248-0.4587 11.358-4.9863 6.1432-1.1777-3.0248zm-4.6-16.787c1.288-3.2188 1.5111 4.6957 0.1367 3.3213-0.5756-0.5758-0.6372-2.0705-0.1367-3.3213zm-2.2823 20.15c0 7.5572-1.0691 8.0087-2.1135 0.8924-1.0275-7 2.1135-9.1513 2.1135-0.8924zm-19.061-23.291c0 4.5796-3.4657 4.5884-3.4657 0 0-4.5796 3.4657-4.5883 3.4657 0zm-15.596-3.4658c0 2.2926-3.4659 2.2894-3.4659 0 0-2.2926 3.4659-2.2894 3.4659 0zm-22.527-3.4657c0 1.9658-1.0024 2.5838-2.5992 0-1.4261-2.3073 2.5992-2.3134 2.5992 0zm-52.852-5.1986c-1.59 2.5725-2.5994 1.9624-2.5994 0 0-2.3154 4.0244-2.3057 2.5994 0zm-14.729-1.7329c0 2.2926-3.4658 2.2894-3.4658 0 0-2.2926 3.4658-2.2894 3.4658 0zm-10.657 0.0867c0.9393 2.8184-3.5024 1.0443-3.3357-0.5632 0.2142-2.072 2.591-1.6707 3.3357 0.5632zm-11.689-4.3066c0.8531 0.5273 1.5512 2.0824 1.5512 3.4557 0 2.5519-2.0646 3.3206-3.9238 1.4612-1.5621-1.562 0.5887-6.0194 2.3726-4.9169zm-8.8458 2.487c0 5.3294-4.3324 2.7346-4.3324 0 0-2.7436 4.3324-5.3366 4.3324 0zm-11.264-3.4656c2.6382 0 3.5546 3.6656 1.4441 5.7762-4.5598 4.5597-5.5826-5.7762-1.4441-5.7762zm-10.397 0c1.4438 0 2.5992 1.5403 2.5992 3.4657 0 4.1317-2.6611 4.5967-4.1467 0.7248-1.4862-3.8732-1.369-4.1905 1.5475-4.1905zm-12.706 2.37c0.3386-1.7582 1.9713-3.4577 3.6282-3.7768 2.2103-0.4256 3.0127 0.5689 3.0127 3.7346 0 7.5042-7.9961 7.0789-6.6409 0.0422zm-5.4891 1.0956c0 6.8915-3.4659 6.9345-3.4659 0 0-6.8914 3.4659-6.9343 3.4659 0zm-11.986-6.9313c0.8737 0 1.5884 2.7293 1.5884 6.065 0 6.7799-2.6467 8.2355-3.8195 2.1007-0.903-4.7243 0.0365-8.1657 2.2311-8.1657zm-13.679 7.3646c0.7122-8.6071 3.8265-8.6379 4.5413 0 0.4185 5.0573-0.0847 6.4982-2.2706 6.4982s-2.6893-1.4409-2.2707-6.4982zm-7.26 4.7653c0 2.2927-3.4659 2.2894-3.4659 0 0-2.2926 3.4659-2.2894 3.4659 0zm-12.996-1.7328c1.4296 1.1865 2.5992 2.4517 2.5992 2.8114 0 0.7092-5.1987 1.7363-5.1987-2.1571 1e-4 -2.3026 0.4705-2.421 2.5995-0.6543zm-9.4366-2.3318c2.1766 2.1765-0.0381 9.2632-2.8957 9.2632-1.3861 0-2.3972-1.7837-2.3972-4.2299 1e-4 -4.6584 2.9053-7.421 5.2929-5.0333zm-10.491 3.9624c0 6.8996-3.4658 6.7556-3.4658 1.071 0-5.5083 3.4658-8.2765 3.4658-1.071zm-8.6644 3.568c0 4.5796-3.4656 4.5884-3.4656 0 0-4.5796 3.4656-4.5884 3.4656 0zm-8.6645-12.996c0 3.3237-0.9987 3.5459-2.3594 0-1.3291-3.4635 2.3594-3.4679 2.3594 0zm2e-4 15.596c0 3.4368-3.4658 3.4376-3.4658 0 1e-4 -3.4368 3.4658-3.4377 3.4658 0zm-14.532 1.6231c1.3653 3.5578-0.5576 8.4253-2.7846 7.0488-0.9598-0.5932-1.7452-2.546-1.7452-4.3397 0-4.2692 3.1973-6.1814 4.5298-2.7091zm-40.92-18.188c0 2.4767-3.4657 1.9762-3.4657 1.071 0-0.9145 3.4657-3.5932 3.4657-1.071zm-122.18 8.7384c1.4733 2.3836-4.3148 1.9163-4.3148 0.9969 0-1.829 3.3256-2.5974 4.3148-0.9969zm-9.773 3.5806c0.9394 2.8183-3.5023 1.0444-3.3358-0.5632 0.2143-2.072 2.5909-1.6707 3.3358 0.5632zm-17.069 1.7485c0 2.0838-3.4656 2.5771-3.4656-1.0711 0-3.6333 3.4656-1.0087 3.4656 1.0711zm-17.416 1.5478c0.8754 1.3841 1.2075 3.1387 0.7375 3.899-1.5032 2.4319-2.3833 1.4916-2.3563-2.5166 0.0208-3.0441 0.3759-3.3472 1.6188-1.3824zm-10.741 2.7234c1.462-7.6497 5.8199-4.4674 2.8497 3.2727-1.6051 4.183-3.7944 1.6689-2.8497-3.2727zm-60.218 9.4894c0 2.2926-3.4658 2.2895-3.4658 0 1e-4 -2.2926 3.4658-2.2894 3.4658 0zm-19.928 3.4658c-1.5898 2.5725-2.5992 1.9623-2.5992 0 0-2.3154 4.0243-2.3058 2.5992 0z"/> <path d="m1328.1 250.33c-1.8157 0-1.5349-15.38 0.3016-16.515 1.7244-1.0657 3.0798 6.9071 2.0714 12.183-0.4554 2.3827-1.5232 4.3321-2.373 4.3321z"/> <path d="m3671.9 250.33c1.8157 0 1.5349-15.38-0.3015-16.515-1.7244-1.0657-3.0798 6.9071-2.0715 12.183 0.4556 2.3827 1.5234 4.3321 2.373 4.3321z"/> <path d="m494.19 299.48c2.6935-4.7511 6.2899-8.9383 10.305-13.322 4.5192-4.9337 9.1719-9.7292 14.135-14.221 9.9818-9.034 20.961-16.963 32.665-23.616 11.676-6.637 23.986-10.758 36.262-15.909 10.658-4.4715 22.058-6.7731 32.824-10.983 14.018-5.4821 17.272-2.7806-0.5767 3.3914-22.177 7.6688-44.15 16.233-64.923 27.269-11.249 5.9762-22.084 12.839-31.82 21.081-7.3086 6.1869-14.61 12.645-20.144 20.528-5.824 8.2957-8.302 16.866-7.7975 26.855 0.3596 7.1267 0.0743 12.958-0.6346 12.958s-2.5128-2.367-4.0089-5.2601c-2.7946-5.4038-1.6408-10.74-0.6735-16.485 0.7843-4.6572 2.32-8.6377 4.388-12.286z"/> <path d="m4505.8 299.48c-2.6934-4.7511-6.29-8.9383-10.306-13.322-4.519-4.9337-9.1719-9.7292-14.134-14.221-9.9819-9.034-20.961-16.963-32.665-23.616-11.676-6.637-23.985-10.758-36.262-15.909-10.658-4.4715-22.059-6.7731-32.824-10.983-14.018-5.4821-17.272-2.7806 0.5771 3.3914 22.177 7.6688 44.15 16.233 64.923 27.269 11.248 5.9762 22.084 12.839 31.82 21.081 7.3086 6.1869 14.61 12.645 20.144 20.528 5.8237 8.2957 8.3018 16.866 7.7974 26.855-0.3599 7.1267-0.0742 12.958 0.6343 12.958 0.709 0 2.5132-2.367 4.0093-5.2601 2.7944-5.4038 1.6406-10.74 0.6733-16.485-0.784-4.6572-2.3197-8.6377-4.3876-12.286z"/> <path d="m574.38 266.68c1.2396-1.8595 2.6393-3.6353 3.8588-5.2163 4.1367-5.3628 9.5552-8.9019 15.183-12.523 6.1655-3.9671 12.537-7.6561 19.122-10.884 20.414-10.006 54.394-15.25 23.136-4.2699-7.4124 2.6037-18.359 7.1126-24.327 10.02-12.544 6.1107-31.868 23.051-35.045 30.721-0.5422 1.309-2.3358 6.3414-4.4871 4.9375-1.6282-1.0626-0.7505-5.7259-0.3225-7.1205 0.5826-1.8983 1.6534-3.8225 2.8815-5.6646z"/> <path d="m4425.6 266.68c-1.2397-1.8595-2.6396-3.6353-3.8589-5.2163-4.1367-5.3628-9.5552-8.9019-15.183-12.523-6.1655-3.9671-12.537-7.6561-19.122-10.884-20.414-10.006-54.394-15.25-23.136-4.2699 7.4121 2.6037 18.359 7.1126 24.327 10.02 12.544 6.1107 31.868 23.051 35.045 30.721 0.542 1.309 2.3359 6.3414 4.4868 4.9375 1.6284-1.0626 0.751-5.7259 0.3228-7.1205-0.5826-1.8983-1.6534-3.8225-2.8814-5.6646z"/> <path d="m1366 213.34c0.4709-0.1173 0.8682-0.2224 1.1207-0.3267 2.8051-1.1583 5.5314-2.4946 8.3575-3.6125 16.389-6.4823 34.313-10.124 51.71-12.706 15.977-2.378 56.877-2.4797 74.478-0.1852 15.664 2.042 31.804 3.5026 47.12 7.5822 3.8013 1.0125 7.5619 2.1653 11.375 3.1349 11.917 3.0301 23.053 8.1433 34.306 13.172 13.917 6.219 27.649 12.852 41.172 19.887 0.8256 0.4295 1.6796 0.8849 2.2328 1.6333 0.5531 0.7484 0.7063 1.8799 0.0928 2.5797-0.8685 0.9908-2.474 0.5179-3.6725-0.0293-4.8322-2.206-9.6643-4.412-14.496-6.6181-8.2391-3.7614-15.877-8.8597-23.997-12.949-12.742-6.4165-25.806-11.981-39.732-15.196-13.713-3.1661-27.706-4.9744-41.555-7.4274-1.3945-0.247-2.7883-0.4981-4.1808-0.7562-6.637-1.2275-26.211-2.0381-47.654-1.9731-37.06 0.1121-53.612 2.1308-80.436 9.8098-0.4725 0.1353-0.9205 0.2621-1.3452 0.3809-4.4015 1.728-8.8029 3.4559-13.204 5.1838-0.4558 0.2109-0.9915 0.4416-1.6213 0.6948-2.1444 0.862-4.0939 1.6165-4.3322 1.677s-0.4332-0.579-0.4332-1.421c0-1.4556 2.8904-2.0851 4.6956-2.5348z"/> <path d="m3634 213.34c-0.4709-0.1173-0.8682-0.2224-1.1208-0.3267-2.8049-1.1583-5.5313-2.4946-8.3574-3.6125-16.389-6.4823-34.313-10.124-51.71-12.706-15.977-2.378-56.877-2.4797-74.478-0.1852-15.664 2.042-31.804 3.5026-47.12 7.5822-3.8013 1.0125-7.562 2.1653-11.376 3.1349-11.917 3.0301-23.053 8.1433-34.306 13.172-13.917 6.219-27.649 12.852-41.172 19.887-0.8254 0.4295-1.6794 0.8849-2.2327 1.6333s-0.7063 1.8799-0.0928 2.5797c0.8684 0.9908 2.4739 0.5179 3.6724-0.0293 4.8323-2.206 9.6643-4.412 14.497-6.6181 8.239-3.7614 15.877-8.8597 23.997-12.949 12.742-6.4165 25.806-11.981 39.732-15.196 13.713-3.1661 27.706-4.9744 41.555-7.4274 1.3945-0.247 2.7883-0.4981 4.1807-0.7562 6.637-1.2275 26.211-2.0381 47.654-1.9731 37.06 0.1121 53.612 2.1308 80.436 9.8098 0.4724 0.1353 0.9204 0.2621 1.345 0.3809 4.4016 1.728 8.803 3.4559 13.204 5.1838 0.4558 0.2109 0.9915 0.4416 1.6213 0.6948 2.1445 0.862 4.094 1.6165 4.3323 1.677s0.4331-0.579 0.4331-1.421c0-1.4556-2.8904-2.0851-4.6956-2.5348z"/> <path d="m1265.5 115.99c11.044-1.0669 46.856 2.8428 51.322 5.6029 2.8546 1.7643 24.078 6.0273 25.14 9.2142 0.5309 1.5924-0.202 1.854-2.5206 0.9001-10.664-4.3874-44.815-9.8962-63.053-10.171-20.558-0.3096-27.489 1.1836-36.161 7.7905-4.7367 3.609-7.2079 2.8606-5.986-1.8126 1.4264-5.4543 13.144-9.7744 31.257-11.524z"/> <path d="m3734.5 115.99c-11.044-1.0669-46.856 2.8428-51.322 5.6029-2.8545 1.7643-24.078 6.0273-25.14 9.2142-0.531 1.5924 0.2019 1.854 2.5205 0.9001 10.664-4.3874 44.815-9.8962 63.053-10.171 20.558-0.3096 27.489 1.1836 36.161 7.7905 4.7366 3.609 7.2078 2.8606 5.9858-1.8126-1.4262-5.4543-13.144-9.7744-31.257-11.524z"/> <path d="m1193.5 89.174c22.859 0 59.147 3.9851 71.609 7.8641 4.7654 1.4833 13.819 3.7961 20.118 5.1394 15.224 3.2463 53.391 16.442 61.326 21.202 4.792 2.8748 0.4801 2.7096-6.4395-0.2466-3.1298-1.3372-13.488-4.7816-23.019-7.6543-31.821-9.5912-32.506-10.676-77.112-18.732-43.572-7.8694-115.48-0.4423-138.24 14.278-4.3459 2.8106-7.6678 1.8776-6.2714-1.7615 3.5135-9.1558 56.868-20.09 98.034-20.09z"/> <path d="m3806.5 89.174c-22.859 0-59.147 3.9851-71.609 7.8641-4.7654 1.4833-13.819 3.7961-20.118 5.1394-15.224 3.2463-53.391 16.442-61.326 21.202-4.792 2.8748-0.4802 2.7096 6.4395-0.2466 3.1296-1.3372 13.488-4.7816 23.019-7.6543 31.821-9.5912 32.506-10.676 77.112-18.732 43.572-7.8694 115.48-0.4423 138.25 14.278 4.3459 2.8106 7.6677 1.8776 6.2712-1.7615-3.5132-9.1558-56.868-20.09-98.034-20.09z"/> <path d="m863.94 59.117c0-5.321 13.891-11.803 38.99-18.194 33.148-8.441 92.578-12.003 132.56-7.9445 25.882 2.6267 25.993 1.9809 25.993 3.8226 0 0.7401-6.0433 0.7956-13.43 0.1232-31.04-2.8259-101.65-0.7914-121.43 3.4987-17.96 3.8954-31.349 5.8731-47.095 13.869-15.275 7.7568-15.596 7.856-15.596 4.8253z"/> <path d="m4136.1 59.117c0-5.321-13.891-11.803-38.989-18.194-33.148-8.441-92.578-12.003-132.56-7.9445-25.882 2.6267-25.993 1.9809-25.993 3.8226 0 0.7401 6.0435 0.7956 13.43 0.1232 31.04-2.8259 101.65-0.7914 121.43 3.4987 17.96 3.8954 31.349 5.8731 47.096 13.869 15.275 7.7568 15.596 7.856 15.596 4.8253z"/> <path d="m638.68 46.285c0.0402-4.773 28.041-13.304 61.314-18.681 9.6361-1.5572 20.278-3.422 23.65-4.144 6.2159-1.3313 52.509-2.2958 49.322-1.0276-3.8083 1.5156-95.891 7.4477-123.9 21.69-6.6622 3.3877-10.404 4.1665-10.386 2.1621z"/> <path d="m4361.3 46.285c-0.0405-4.773-28.041-13.304-61.314-18.681-9.6357-1.5572-20.278-3.422-23.649-4.144-6.2158-1.3313-52.509-2.2958-49.322-1.0276 3.8081 1.5156 95.891 7.4477 123.9 21.69 6.6626 3.3877 10.404 4.1665 10.387 2.1621z"/> </svg>